<?xml version="1.0" ?><svg enable-background="new 0 0 512 512" id="Layer_1" version="1.1" viewBox="0 0 512 512" xml:space="preserve" xmlns="http://www.w3.org/2000/svg" xmlns:xlink="http://www.w3.org/1999/xlink"><g><g><linearGradient gradientUnits="userSpaceOnUse" id="SVGID_1_" x1="-0.0000027" x2="512" y1="256" y2="256"><stop offset="0" style="stop-color:#F35CB5"/><stop offset="1" style="stop-color:#EC008C"/></linearGradient><circle cx="256" cy="256" fill="url(#SVGID_1_)" r="256"/><linearGradient gradientUnits="userSpaceOnUse" id="SVGID_2_" x1="42.6666641" x2="469.3333435" y1="256.0005188" y2="256.0005188"><stop offset="0" style="stop-color:#EC008C"/><stop offset="1" style="stop-color:#F35CB5"/></linearGradient><path d="M256,469.3338623c-117.6315155,0-213.3333435-95.7023926-213.3333435-213.3333435    c0-117.6314545,95.7018204-213.333313,213.3333435-213.333313c117.6356812,0,213.3333435,95.7018661,213.3333435,213.333313    C469.3333435,373.6314697,373.6356812,469.3338623,256,469.3338623z" fill="url(#SVGID_2_)"/></g><path d="M346.7695618,235.2496033c-15.2261353,0.0293274-30.4608154,0.2629242-45.7002869,0.6666565L236.7087555,144   h-33.9300842l43.3674164,94.0826721c-17.9220886,0.9087982-35.8432007,1.990921-53.7557373,3.2229309l-26.9807892-47.4485321   H147.291153l17.3381805,49.4543915c-8.906662,0.3232117-16.0746613,9.4261322-16.0746613,20.6773376   c0,11.2549438,7.1711426,20.3589478,16.081543,20.6784058l-17.3450623,49.4741211h18.1184082l26.990921-47.4661255   c17.9098663,1.2346802,35.8277435,2.3221436,53.7472076,3.235199L202.7786713,384h33.9300842l64.3530731-91.9056091   c15.242157,0.4064026,30.4789124,0.643219,45.7077332,0.6725464c18.4533386-0.1562805,33.9386597-13.398407,33.9386597-28.7002563   V263.9888C380.7082214,248.6485291,365.2703552,235.3669281,346.7695618,235.2496033z" opacity="0.3"/><path d="M338.7695618,227.2496033c-15.2261353,0.0293274-30.4608154,0.2629242-45.7002869,0.6666565   L228.7087555,136h-33.9300842l43.3674164,94.0826721c-17.9220886,0.9087982-35.8432007,1.990921-53.7557373,3.2229309   l-26.9807892-47.4485321H139.291153l17.3381805,49.4543915c-8.906662,0.3232117-16.0746613,9.4261322-16.0746613,20.6773376   c0,11.2549438,7.1711578,20.3589478,16.081543,20.6784058l-17.3450623,49.4741211h18.1184082l26.990921-47.4661255   c17.9098663,1.2346802,35.8277435,2.3221436,53.7472076,3.235199L194.7786713,376h33.9300842l64.3530731-91.9056091   c15.242157,0.4064026,30.4789124,0.643219,45.7077332,0.6725464c18.4533386-0.1562805,33.9386597-13.398407,33.9386597-28.7002563   V255.9888C372.7082214,240.6485291,357.2703552,227.3669281,338.7695618,227.2496033z" fill="#FFFFFF"/></g></svg>