<?xml version="1.0" encoding="iso-8859-1"?>
<!-- Generator: Adobe Illustrator 21.1.0, SVG Export Plug-In . SVG Version: 6.00 Build 0)  -->
<svg version="1.1" id="Layer_1" xmlns="http://www.w3.org/2000/svg" xmlns:xlink="http://www.w3.org/1999/xlink" x="0px" y="0px"
	 viewBox="0 0 24 24" enable-background="new 0 0 24 24" xml:space="preserve">
<g id="XMLID_1728_">
	
		<rect id="XMLID_1713_" x="10.5" y="2.5" fill="none" stroke="#303C42" stroke-linecap="round" stroke-linejoin="round" stroke-miterlimit="10" width="2" height="3"/>
	<path id="XMLID_1711_" fill="none" stroke="#303C42" stroke-linecap="round" stroke-linejoin="round" stroke-miterlimit="10" d="
		M18.5,13.5064001V4L15,0.5H2C1.171589,0.5,0.5,1.1716,0.5,2v15c0,0.8283997,0.671589,1.5,1.5,1.5h11.5637884"/>
	<path id="XMLID_1710_" fill="none" stroke="#303C42" stroke-linecap="round" stroke-linejoin="round" stroke-miterlimit="10" d="
		M14.5,0.5V6c0,0.8284001-0.6716108,1.5-1.5,1.5H6C5.1715889,7.5,4.5,6.8284001,4.5,6V0.5"/>
	
		<polyline id="XMLID_1709_" fill="none" stroke="#303C42" stroke-linecap="round" stroke-linejoin="round" stroke-miterlimit="10" points="
		15.5,14.5753002 15.5,9.5 3.5,9.5 3.5,18.5 	"/>
	<g id="XMLID_1707_">
		
			<circle id="XMLID_1708_" fill="none" stroke="#303C42" stroke-linecap="round" stroke-linejoin="round" stroke-miterlimit="10" cx="18.5" cy="18.5" r="5"/>
	</g>
	
		<polyline id="XMLID_1706_" fill="none" stroke="#303C42" stroke-linecap="round" stroke-linejoin="round" stroke-miterlimit="10" points="
		18.5,15.5 18.5,18.5 20,20 	"/>
</g>
<g>
	<path fill="#303C42" d="M19,13.0253296V4c0-0.1328125-0.0527344-0.2597656-0.1464844-0.3535156l-3.5-3.5
		C15.2597656,0.0527344,15.1328125,0,15,0H2C0.8969727,0,0,0.8969727,0,2v15c0,1.1030273,0.8969727,2,2,2h11.0253296
		c0.2537842,2.7989502,2.6107178,5,5.4746704,5c3.0327148,0,5.5-2.4672852,5.5-5.5
		C24,15.6360474,21.7989502,13.2791138,19,13.0253296z"/>
	<circle fill="#E6E6E5" cx="18.5" cy="18.5" r="4.5"/>
	<path fill="#F3F3F3" d="M5,1h9v5c0,0.5512695-0.4487305,1-1,1H6C5.4487305,7,5,6.5512695,5,6V1z"/>
	<path fill="#57C1EF" d="M1,17V2c0-0.5512695,0.4487305-1,1-1h2v5c0,1.1030273,0.8969727,2,2,2h7c1.1030273,0,2-0.8969727,2-2
		V1.2070313l3,3v8.8182983c-0.71521,0.0648804-1.3896484,0.2687378-2,0.5818481V9.5C16,9.2236328,15.7763672,9,15.5,9h-12
		C3.2236328,9,3,9.2236328,3,9.5V18H2C1.4487305,18,1,17.5512695,1,17z"/>
	<path fill="#F3F3F3" d="M15,14.2606812C13.9001465,15.1703491,13.161377,16.4993896,13.0253296,18H4v-8h11V14.2606812z"/>
	<rect x="4" y="10" fill="#3D82C4" width="11" height="1"/>
	<path fill="#303C42" d="M10.5,6h2C12.7763672,6,13,5.7763672,13,5.5v-3C13,2.2236328,12.7763672,2,12.5,2h-2
		C10.2236328,2,10,2.2236328,10,2.5v3C10,5.7763672,10.2236328,6,10.5,6z"/>
	<rect x="11" y="3" fill="#57C1EF" width="1" height="2"/>
	<path fill="#303C42" d="M19,18.2929688V15.5c0-0.2763672-0.2236328-0.5-0.5-0.5S18,15.2236328,18,15.5v3
		c0,0.1328125,0.0527344,0.2597656,0.1464844,0.3535156l1.5,1.5C19.7441406,20.4511719,19.8720703,20.5,20,20.5
		s0.2558594-0.0488281,0.3535156-0.1464844c0.1953125-0.1953125,0.1953125-0.5117188,0-0.7070313L19,18.2929688z"/>
	<linearGradient id="SVGID_1_" gradientUnits="userSpaceOnUse" x1="-1.5540042" y1="4.8892589" x2="25.1158772" y2="17.3256283">
		<stop  offset="0" style="stop-color:#FFFFFF;stop-opacity:0.2"/>
		<stop  offset="1" style="stop-color:#FFFFFF;stop-opacity:0"/>
	</linearGradient>
	<path fill="url(#SVGID_1_)" d="M19,13.0253296V4c0-0.1328125-0.0527344-0.2597656-0.1464844-0.3535156l-3.5-3.5
		C15.2597656,0.0527344,15.1328125,0,15,0H2C0.8969727,0,0,0.8969727,0,2v15c0,1.1030273,0.8969727,2,2,2h11.0253296
		c0.2537842,2.7989502,2.6107178,5,5.4746704,5c3.0327148,0,5.5-2.4672852,5.5-5.5
		C24,15.6360474,21.7989502,13.2791138,19,13.0253296z"/>
</g>
<g>
</g>
<g>
</g>
<g>
</g>
<g>
</g>
<g>
</g>
<g>
</g>
<g>
</g>
<g>
</g>
<g>
</g>
<g>
</g>
<g>
</g>
<g>
</g>
<g>
</g>
<g>
</g>
<g>
</g>
</svg>
