<?xml version="1.0" ?><svg height="512" viewBox="0 0 512 512" width="512" xmlns="http://www.w3.org/2000/svg"><defs><style>
      .cls-1 {
        fill: #fbae17;
      }

      .cls-2 {
        fill: none;
        stroke: #000;
        stroke-linecap: round;
        stroke-linejoin: round;
        stroke-width: 3px;
      }

      .cls-3 {
        fill: #fff;
      }
    </style></defs><title/><g data-name="Set v 2" id="Set_v_2"><g><circle class="cls-1" cx="256" cy="257.43" r="190"/><circle class="cls-2" cx="256" cy="257.43" r="190"/><path class="cls-2" d="M404.74,344q-4.28,7.53-9.27,14.58"/><path class="cls-2" d="M426.5,270.47A170,170,0,0,1,410,334"/><path class="cls-2" d="M426.16,244.79q.66,7.5.66,15.17"/><path class="cls-2" d="M298.88,94.56q5.87,1.51,11.54,3.42"/><path class="cls-2" d="M198.27,99.12a172.11,172.11,0,0,1,94-6.13"/><path class="cls-2" d="M178.2,107.82q6.44-3.3,13.16-6"/><path class="cls-2" d="M87.2,286.56q-1.24-8.06-1.75-16.34"/><path class="cls-2" d="M123.13,367.38a170.18,170.18,0,0,1-34.36-72.27"/><path class="cls-2" d="M136.74,382.3q-4-3.87-7.69-8"/></g><g><g><path class="cls-3" d="M163.4,344.43c-1,4.58-1.92,9.16-2.83,13.74-.31,1.53-.64,2.95-2.63,2.86-2.28-.1-2.45-1.78-2.38-3.44a182.66,182.66,0,0,1,1.93-21.91c2.32-14.35,5.29-28.56,10.78-42.1,6-14.7,13.88-28.1,26.1-38.6a75.12,75.12,0,0,1,9.43-6.44,9.27,9.27,0,0,1,5.1-1.07l79.22.22c6.17,0,12.33,0,18.49,0,5,0,5.49.55,4.46,5.3a156.75,156.75,0,0,0-3.49,40.23,95.71,95.71,0,0,0,5.77,30.12,24.68,24.68,0,0,0,3.19,6.22c-.54-5.73-1.14-10.71-1.47-15.71-1-16-1.44-32,2.28-47.73a63.61,63.61,0,0,1,4.72-13.7,8.13,8.13,0,0,1,13.43-1.89c1.54,1.64,1.67,3.67,1.51,5.77-.29,3.68-1.46,7.18-2.33,10.73a99,99,0,0,0-1.48,42.33A65.45,65.45,0,0,0,352,345c3.8,3.72,3.46,5.4-1.28,7.64a3.26,3.26,0,0,1-4.57-1.11c-2.3-3-4.66-6-7.12-9.16-1.11.77-.86,1.82-.81,2.74.06,1.17.24,2.34.41,3.5.93,6.54.69,6.1-5,9.22-6,3.26-12.13,3.88-18.67,3.67-5.71-.19-11.44-.13-17.16,0-3.07.09-4.82-1.08-6.07-3.91a71.66,71.66,0,0,1-5.91-24.24c-.11-1.55.31-3.21-.93-4.9-2.15,3.79-2.86,7.82-3.48,11.82a60.82,60.82,0,0,0-.53,16.67c.46,3.69.07,4.1-3.67,4.12q-18.93.09-37.85.08-33,0-66,0c-.73,0-1.47,0-2.2,0-3.32-.13-3.24-.17-4-3.36C166,353.39,165.91,348.76,163.4,344.43Z"/><path class="cls-3" d="M254.36,209.65c5.73,0,11.46-.21,17.17.06,4.89.23,8-1.66,10.07-6.09,3.95-8.51,8-17,12.27-25.33,4-7.82,8-15.65,14.34-22a9.13,9.13,0,0,1,7.45-3c3.82.22,7.64.49,11.13,2.22,3.77,1.87,5.56,5,5.63,9.21A26.89,26.89,0,0,1,329,178.24a150.8,150.8,0,0,1-11.67,17.57,96.74,96.74,0,0,0-6.4,9.45c-2,3.54-1.49,4.38,2.53,4.42,9.39.08,18.79.2,28.17,0a18.23,18.23,0,0,1,10.76,3.16c3.91,2.57,5,5.49,3.33,9.76-2.38,6-4.92,11.93-7.5,17.84-1.21,2.77-1.48,2.87-4.26,1.77-2.42-1-4.9-.83-7.38-.82q-54.58.24-109.16.51c-4.85,0-9.69,0-14.53,0a22.4,22.4,0,0,1-3.07-.11c-4-.54-5.46-3.27-3.19-6.49,4.9-6.94,9.59-14.06,15.87-19.9,3.89-3.61,8.36-5.84,13.85-5.75,6,.09,12,0,18,0Z"/></g><g><path class="cls-2" d="M163.4,344.43c-1,4.58-1.92,9.16-2.83,13.74-.31,1.53-.64,2.95-2.63,2.86-2.28-.1-2.45-1.78-2.38-3.44a182.66,182.66,0,0,1,1.93-21.91c2.32-14.35,5.29-28.56,10.78-42.1,6-14.7,13.88-28.1,26.1-38.6a75.12,75.12,0,0,1,9.43-6.44,9.27,9.27,0,0,1,5.1-1.07l79.22.22c6.17,0,12.33,0,18.49,0,5,0,5.49.55,4.46,5.3a156.75,156.75,0,0,0-3.49,40.23,95.71,95.71,0,0,0,5.77,30.12,24.68,24.68,0,0,0,3.19,6.22c-.54-5.73-1.14-10.71-1.47-15.71-1-16-1.44-32,2.28-47.73a63.61,63.61,0,0,1,4.72-13.7,8.13,8.13,0,0,1,13.43-1.89c1.54,1.64,1.67,3.67,1.51,5.77-.29,3.68-1.46,7.18-2.33,10.73a99,99,0,0,0-1.48,42.33A65.45,65.45,0,0,0,352,345c3.8,3.72,3.46,5.4-1.28,7.64a3.26,3.26,0,0,1-4.57-1.11c-2.3-3-4.66-6-7.12-9.16-1.11.77-.86,1.82-.81,2.74.06,1.17.24,2.34.41,3.5.93,6.54.69,6.1-5,9.22-6,3.26-12.13,3.88-18.67,3.67-5.71-.19-11.44-.13-17.16,0-3.07.09-4.82-1.08-6.07-3.91a71.66,71.66,0,0,1-5.91-24.24c-.11-1.55.31-3.21-.93-4.9-2.15,3.79-2.86,7.82-3.48,11.82a60.82,60.82,0,0,0-.53,16.67c.46,3.69.07,4.1-3.67,4.12q-18.93.09-37.85.08-33,0-66,0c-.73,0-1.47,0-2.2,0-3.32-.13-3.24-.17-4-3.36C166,353.39,165.91,348.76,163.4,344.43Z"/><path class="cls-2" d="M254.36,209.65c5.73,0,11.46-.21,17.17.06,4.89.23,8-1.66,10.07-6.09,3.95-8.51,8-17,12.27-25.33,4-7.82,8-15.65,14.34-22a9.13,9.13,0,0,1,7.45-3c3.82.22,7.64.49,11.13,2.22,3.77,1.87,5.56,5,5.63,9.21A26.89,26.89,0,0,1,329,178.24a150.8,150.8,0,0,1-11.67,17.57,96.74,96.74,0,0,0-6.4,9.45c-2,3.54-1.49,4.38,2.53,4.42,9.39.08,18.79.2,28.17,0a18.23,18.23,0,0,1,10.76,3.16c3.91,2.57,5,5.49,3.33,9.76-2.38,6-4.92,11.93-7.5,17.84-1.21,2.77-1.48,2.87-4.26,1.77-2.42-1-4.9-.83-7.38-.82q-54.58.24-109.16.51c-4.85,0-9.69,0-14.53,0a22.4,22.4,0,0,1-3.07-.11c-4-.54-5.46-3.27-3.19-6.49,4.9-6.94,9.59-14.06,15.87-19.9,3.89-3.61,8.36-5.84,13.85-5.75,6,.09,12,0,18,0Z"/></g></g></g></svg>