<?xml version="1.0" encoding="iso-8859-1"?><!-- Generator: Adobe Illustrator 19.2.1, SVG Export Plug-In . SVG Version: 6.00 Build 0)  --><svg xmlns="http://www.w3.org/2000/svg" xmlns:xlink="http://www.w3.org/1999/xlink" version="1.1" id="Layer_1" x="0px" y="0px" viewBox="0 0 80 80" style="enable-background:new 0 0 80 80;" xml:space="preserve" width="80" height="80">
<g>
	<path style="fill:#B53838;" d="M66.87,13.13C59.993,6.253,50.494,2,40,2v38L66.87,13.13z"/>
</g>
<g>
	<path style="fill:#B86E3E;" d="M78,40c0-9.725-3.71-19.45-11.13-26.87L40,40H78z"/>
</g>
<g>
	<path style="fill:#B88F28;" d="M66.87,66.87C73.747,59.993,78,50.494,78,40H40L66.87,66.87z"/>
</g>
<g>
	<path style="fill:#51966C;" d="M40,78c9.725,0,19.45-3.71,26.87-11.13L40,40V78z"/>
</g>
<g>
	<path style="fill:#5682BA;" d="M13.13,66.87C20.007,73.747,29.506,78,40,78V40L13.13,66.87z"/>
</g>
<g>
	<path style="fill:#4965A8;" d="M2,40c0,9.725,3.71,19.45,11.13,26.87L40,40H2z"/>
</g>
<g>
	<path style="fill:#7E5D9E;" d="M13.13,13.13C6.253,20.007,2,29.506,2,40h38L13.13,13.13z"/>
</g>
<g>
	<path style="fill:#914683;" d="M40,2c-9.725,0-19.45,3.71-26.87,11.13L40,40V2z"/>
</g>
<g>
	<path style="fill:#EB6060;" d="M66.163,13.837C59.467,7.141,50.217,3,40,3v37L66.163,13.837z"/>
</g>
<g>
	<path style="fill:#F08A48;" d="M77,40c0-9.469-3.612-18.938-10.837-26.163L40,40H77z"/>
</g>
<g>
	<path style="fill:#FFDF59;" d="M66.163,66.163C72.859,59.467,77,50.217,77,40H40L66.163,66.163z"/>
</g>
<g>
	<path style="fill:#76D67D;" d="M40,77c9.469,0,18.938-3.612,26.163-10.837L40,40V77z"/>
</g>
<g>
	<path style="fill:#669FED;" d="M13.837,66.163C20.533,72.859,29.783,77,40,77V40L13.837,66.163z"/>
</g>
<g>
	<path style="fill:#6F85E8;" d="M3,40c0,9.469,3.612,18.938,10.837,26.163L40,40H3z"/>
</g>
<g>
	<path style="fill:#B05DE3;" d="M13.837,13.837C7.141,20.533,3,29.783,3,40h37L13.837,13.837z"/>
</g>
<g>
	<path style="fill:#DC5DE3;" d="M40,3c-9.469,0-18.938,3.612-26.163,10.837L40,40V3z"/>
</g>
</svg>