<?xml version="1.0" ?><svg height="32" id="svg4063" version="1.1" viewBox="0 0 32 32.000001" width="32" xmlns="http://www.w3.org/2000/svg" xmlns:cc="http://creativecommons.org/ns#" xmlns:dc="http://purl.org/dc/elements/1.1/" xmlns:inkscape="http://www.inkscape.org/namespaces/inkscape" xmlns:rdf="http://www.w3.org/1999/02/22-rdf-syntax-ns#" xmlns:sodipodi="http://sodipodi.sourceforge.net/DTD/sodipodi-0.dtd" xmlns:svg="http://www.w3.org/2000/svg"><defs id="defs4065"/><g id="layer1" transform="translate(0,-1020.3621)"><g id="g5146"><path d="m 13.5,1022.8585 -0.51172,3.4492 a 10.499982,10.499982 0 0 0 -1.96484,0.8145 l -2.80078,-2.0782 -3.53711,3.5372 2.07422,2.7949 a 10.499982,10.499982 0 0 0 -0.81446,1.9726 l -3.44531,0.5098 0,5 3.44922,0.5117 a 10.499982,10.499982 0 0 0 0.81445,1.9649 l -2.07812,2.8007 3.53711,3.5372 2.79492,-2.0743 a 10.499982,10.499982 0 0 0 1.97265,0.8145 l 0.50977,3.4453 5,0 0.51172,-3.4492 a 10.499982,10.499982 0 0 0 1.96484,-0.8145 l 2.80078,2.0782 3.53711,-3.5372 -2.07422,-2.7949 a 10.499982,10.499982 0 0 0 0.81446,-1.9726 l 3.44531,-0.5098 0,-5 -3.44922,-0.5117 a 10.499982,10.499982 0 0 0 -0.81445,-1.9649 l 2.07812,-2.8007 -3.53711,-3.5372 -2.79492,2.0743 a 10.499982,10.499982 0 0 0 -1.97265,-0.8145 l -0.50977,-3.4453 -5,0 z" id="path4244" style="opacity:1;fill:#0084ff;fill-opacity:1;stroke:none;stroke-width:1;stroke-linecap:round;stroke-linejoin:round;stroke-miterlimit:4.0999999;stroke-dasharray:none"/><path d="m 13.5,1031.4601 a 5.5,5.5 0 0 0 -3,4.8984 5.5,5.5 0 0 0 5.5,5.5 5.5,5.5 0 0 0 5.5,-5.5 5.5,5.5 0 0 0 -3,-4.8926 l 0,4.8926 -2.5,1.5 -2.5,-1.5 0,-4.8984 z" id="path4246" style="opacity:1;fill:#ffaf00;fill-opacity:1;stroke:none;stroke-width:1;stroke-linecap:round;stroke-linejoin:round;stroke-miterlimit:4.0999999;stroke-dasharray:none"/><path d="m 18.5,1039.3585 0,10.5 -5,0 0,-10.5" id="path4248" style="opacity:1;fill:#ffaf00;fill-opacity:1;stroke:none;stroke-width:0.99999994;stroke-linecap:round;stroke-linejoin:round;stroke-miterlimit:4.0999999;stroke-dasharray:none"/><path d="m 13.5,1022.3594 a 0.50005,0.50005 0 0 0 -0.494141,0.4258 l -0.470703,3.1718 c -0.493878,0.1648 -0.973849,0.3628 -1.439453,0.5957 l -2.5742186,-1.9101 a 0.50005,0.50005 0 0 0 -0.6523438,0.049 l -3.5371094,3.5371 a 0.50005,0.50005 0 0 0 -0.048828,0.6504 l 1.9082031,2.5723 c -0.232714,0.4667 -0.4314602,0.9484 -0.5957031,1.4433 l -3.1679687,0.4688 A 0.50005,0.50005 0 0 0 2,1033.8594 l 0,5 a 0.50005,0.50005 0 0 0 0.4257812,0.4941 l 3.1738282,0.4707 c 0.1644985,0.4929 0.3632637,0.9728 0.5957031,1.4375 l -1.9121094,2.5762 a 0.50005,0.50005 0 0 0 0.048828,0.6523 l 3.5371094,3.5371 a 0.50005,0.50005 0 0 0 0.6523438,0.047 l 2.5703126,-1.9062 c 0.467202,0.233 0.949772,0.4312 1.445312,0.5957 l 0.46875,3.1679 A 0.50005,0.50005 0 0 0 13.5,1050.3594 l 5,0 a 0.50005,0.50005 0 0 0 0.494141,-0.4278 l 0.470703,-3.1718 c 0.493878,-0.1648 0.973849,-0.3628 1.439453,-0.5957 l 2.574219,1.9101 a 0.50005,0.50005 0 0 0 0.652343,-0.047 l 3.53711,-3.5371 a 0.50005,0.50005 0 0 0 0.04883,-0.6523 l -1.908203,-2.5723 c 0.232714,-0.4667 0.43146,-0.9484 0.595703,-1.4433 l 3.167969,-0.4688 A 0.50005,0.50005 0 0 0 30,1038.8594 l 0,-5 a 0.50005,0.50005 0 0 0 -0.425781,-0.4961 l -3.173828,-0.4707 c -0.164499,-0.4929 -0.363264,-0.9728 -0.595703,-1.4375 l 1.912109,-2.5762 a 0.50005,0.50005 0 0 0 -0.04883,-0.6504 l -3.53711,-3.5371 a 0.50005,0.50005 0 0 0 -0.652343,-0.049 l -2.570313,1.9062 c -0.467202,-0.233 -0.949772,-0.4312 -1.445312,-0.5957 l -0.46875,-3.1679 A 0.50005,0.50005 0 0 0 18.5,1022.3594 l -5,0 z m 0.431641,1 4.136718,0 0.447266,3.0176 a 0.50005,0.50005 0 0 0 0.351563,0.4062 c 0.650959,0.1941 1.280639,0.4537 1.878906,0.7754 a 0.50005,0.50005 0 0 0 0.535156,-0.039 l 2.447266,-1.8164 2.927734,2.9258 -1.822266,2.4551 a 0.50005,0.50005 0 0 0 -0.03711,0.5351 c 0.321232,0.596 0.580845,1.2227 0.775391,1.8711 a 0.50005,0.50005 0 0 0 0.404296,0.3516 L 29,1034.2891 l 0,4.1386 -3.017578,0.4453 a 0.50005,0.50005 0 0 0 -0.40625,0.3516 c -0.194083,0.651 -0.453698,1.2807 -0.775391,1.8789 a 0.50005,0.50005 0 0 0 0.03711,0.5352 l 1.818359,2.4492 -2.927734,2.9258 -2.453125,-1.8203 a 0.50005,0.50005 0 0 0 -0.535157,-0.039 c -0.595894,0.3212 -1.224639,0.5808 -1.873046,0.7754 a 0.50005,0.50005 0 0 0 -0.34961,0.4062 l -0.449219,3.0235 -4.136718,0 -0.447266,-3.0196 a 0.50005,0.50005 0 0 0 -0.351563,-0.4062 c -0.650959,-0.1941 -1.280639,-0.4537 -1.878906,-0.7754 a 0.50005,0.50005 0 0 0 -0.535156,0.039 l -2.4472656,1.8164 -2.9277344,-2.9258 1.8222656,-2.4551 a 0.50005,0.50005 0 0 0 0.037109,-0.5351 c -0.3212321,-0.596 -0.5808446,-1.2227 -0.7753906,-1.8711 A 0.50005,0.50005 0 0 0 6.0234375,1038.875 L 3,1038.4277 l 0,-4.1386 3.0175781,-0.4453 a 0.50005,0.50005 0 0 0 0.40625,-0.3516 c 0.1940826,-0.651 0.4536977,-1.2807 0.7753907,-1.8789 a 0.50005,0.50005 0 0 0 -0.037109,-0.5352 l -1.8183594,-2.4492 2.9277344,-2.9258 2.4531246,1.8203 a 0.50005,0.50005 0 0 0 0.535157,0.039 c 0.595894,-0.3212 1.224639,-0.5808 1.873046,-0.7754 a 0.50005,0.50005 0 0 0 0.34961,-0.4062 l 0.449219,-3.0215 z" id="path3717" style="color:#000000;font-style:normal;font-variant:normal;font-weight:normal;font-stretch:normal;font-size:medium;line-height:normal;font-family:sans-serif;text-indent:0;text-align:start;text-decoration:none;text-decoration-line:none;text-decoration-style:solid;text-decoration-color:#000000;letter-spacing:normal;word-spacing:normal;text-transform:none;direction:ltr;block-progression:tb;writing-mode:lr-tb;baseline-shift:baseline;text-anchor:start;white-space:normal;clip-rule:nonzero;display:inline;overflow:visible;visibility:visible;opacity:1;isolation:auto;mix-blend-mode:normal;color-interpolation:sRGB;color-interpolation-filters:linearRGB;solid-color:#000000;solid-opacity:1;fill:#000000;fill-opacity:1;fill-rule:nonzero;stroke:none;stroke-width:1;stroke-linecap:round;stroke-linejoin:round;stroke-miterlimit:4.0999999;stroke-dasharray:none;stroke-dashoffset:0;stroke-opacity:1;color-rendering:auto;image-rendering:auto;shape-rendering:auto;text-rendering:auto;enable-background:accumulate"/><path d="m 13.484375,1030.9609 a 0.50005,0.50005 0 0 0 -0.210937,0.055 c -2.007374,1.0244 -3.273201,3.0901 -3.273438,5.3438 0,3.3078 2.692214,6 6,6 3.307786,0 6,-2.6922 6,-6 a 0.50005,0.50005 0 0 0 0,-0 c -0.0026,-2.2513 -1.268086,-4.3126 -3.273438,-5.3359 A 0.50005,0.50005 0 0 0 18,1031.4668 l 0,4.6094 -2,1.1992 -2,-1.1992 0,-4.6153 a 0.50005,0.50005 0 0 0 -0.515625,-0.5 z M 13,1032.5781 l 0,3.7813 a 0.50005,0.50005 0 0 0 0.242188,0.4277 l 2.5,1.5 a 0.50005,0.50005 0 0 0 0.515624,0 l 2.5,-1.5 A 0.50005,0.50005 0 0 0 19,1036.3594 l 0,-3.7754 c 1.170508,0.9361 1.998219,2.2402 2,3.7754 0,2.7673 -2.232654,5 -5,5 -2.767346,0 -5,-2.2327 -5,-5 1.62e-4,-1.5369 0.828321,-2.844 2,-3.7813 z" id="path3719" style="color:#000000;font-style:normal;font-variant:normal;font-weight:normal;font-stretch:normal;font-size:medium;line-height:normal;font-family:sans-serif;text-indent:0;text-align:start;text-decoration:none;text-decoration-line:none;text-decoration-style:solid;text-decoration-color:#000000;letter-spacing:normal;word-spacing:normal;text-transform:none;direction:ltr;block-progression:tb;writing-mode:lr-tb;baseline-shift:baseline;text-anchor:start;white-space:normal;clip-rule:nonzero;display:inline;overflow:visible;visibility:visible;opacity:1;isolation:auto;mix-blend-mode:normal;color-interpolation:sRGB;color-interpolation-filters:linearRGB;solid-color:#000000;solid-opacity:1;fill:#000000;fill-opacity:1;fill-rule:nonzero;stroke:none;stroke-width:1;stroke-linecap:round;stroke-linejoin:round;stroke-miterlimit:4.0999999;stroke-dasharray:none;stroke-dashoffset:0;stroke-opacity:1;color-rendering:auto;image-rendering:auto;shape-rendering:auto;text-rendering:auto;enable-background:accumulate"/><path d="M 13.492188,1040.8516 A 0.50004997,0.50004997 0 0 0 13,1041.3594 l 0,8.5 a 0.50004997,0.50004997 0 1 0 1,0 l 0,-8.5 a 0.50004997,0.50004997 0 0 0 -0.507812,-0.5078 z m 5,0 A 0.50004997,0.50004997 0 0 0 18,1041.3594 l 0,8.5 a 0.50004997,0.50004997 0 1 0 1,0 l 0,-8.5 a 0.50004997,0.50004997 0 0 0 -0.507812,-0.5078 z" id="path3721" style="color:#000000;font-style:normal;font-variant:normal;font-weight:normal;font-stretch:normal;font-size:medium;line-height:normal;font-family:sans-serif;text-indent:0;text-align:start;text-decoration:none;text-decoration-line:none;text-decoration-style:solid;text-decoration-color:#000000;letter-spacing:normal;word-spacing:normal;text-transform:none;direction:ltr;block-progression:tb;writing-mode:lr-tb;baseline-shift:baseline;text-anchor:start;white-space:normal;clip-rule:nonzero;display:inline;overflow:visible;visibility:visible;opacity:1;isolation:auto;mix-blend-mode:normal;color-interpolation:sRGB;color-interpolation-filters:linearRGB;solid-color:#000000;solid-opacity:1;fill:#000000;fill-opacity:1;fill-rule:nonzero;stroke:none;stroke-width:0.99999994;stroke-linecap:round;stroke-linejoin:round;stroke-miterlimit:4.0999999;stroke-dasharray:none;stroke-dashoffset:0;stroke-opacity:1;color-rendering:auto;image-rendering:auto;shape-rendering:auto;text-rendering:auto;enable-background:accumulate"/></g></g></svg>