<?xml version="1.0" ?><svg id="Layer_1" style="enable-background:new 0 0 30 30;" version="1.1" viewBox="0 0 30 30" xml:space="preserve" xmlns="http://www.w3.org/2000/svg" xmlns:xlink="http://www.w3.org/1999/xlink"><style type="text/css">
	.st0{fill:#F51611;}
	.st1{fill:#222322;}
	.st2{fill:#FFFFFF;}
	.st3{opacity:0.33;fill:#FFFFFF;}
	.st4{opacity:0.6;fill:#A70101;}
	.st5{fill:#050505;}
</style><g><path class="st0" d="M6.849,16.618c0,0,0.153-8.57,12.924-5.28c0,0,5.554,2.73,2.941,12.187c0,0-1.12,4.542-7.715,5.848   C15,29.373,5.356,28.066,6.849,16.618z"/><path class="st1" d="M9.182,11.952c0,0,0.747-6.215,5.817-5.453c0,0,5.524,0.288,5.838,5.008l-3.629-0.788l-5.04-0.034   L9.182,11.952z"/><path class="st1" d="M11.92,6.535c0,0,3.279-3.417,6.294,0.461c0,0-6.294,0.563-6.294,0.051S11.92,6.535,11.92,6.535z"/><path class="st2" d="M13.151,8.163L11.524,9.26c-0.196,0.132,0.19,0.13,0.19,0.13c0.726-0.157,0.926,0.498,0.926,0.498l0.299-0.214   c0.584-0.399,1.239-0.228,1.239-0.228C14.249,8.564,13.151,8.163,13.151,8.163z"/><path class="st2" d="M19.008,9.294l-1.711-1.131c-1.044,0.595-0.942,1.334-0.942,1.334c1.073-0.189,1.566,0.391,1.566,0.391   c0.101-0.348,0.696-0.493,0.696-0.493C19.153,9.381,19.008,9.294,19.008,9.294z"/><path class="st2" d="M14.702,5.981l-0.253-0.268h-0.09l-0.606,0.268l0.19,0.275c0.136,0.163,0.31,0.065,0.31,0.065l0.313-0.138   C14.883,6.175,14.702,5.981,14.702,5.981z"/><path class="st2" d="M16.469,5.986l-0.232-0.245h-0.083L15.6,5.986l0.174,0.251c0.124,0.149,0.284,0.06,0.284,0.06l0.287-0.126   C16.634,6.163,16.469,5.986,16.469,5.986z"/><path d="M17.431,12.393c1.081,1.834-1.552,1.834-2.028,1.834c-0.476,0-3.072-0.171-2.647-1.409c0.154-0.45,1.305-1.879,2.67-1.767   C16.562,11.144,17.189,11.984,17.431,12.393z"/><path d="M13.744,26.548c0,0.615-0.692,0.726-1.307,0.726c-0.615,0-1.307-0.741-1.307-1.356s0.741-0.726,1.356-0.726   C13.1,25.193,13.744,25.933,13.744,26.548z"/><path d="M18.808,26.548c0,0.615-0.692,0.726-1.307,0.726s-1.307-0.741-1.307-1.356s0.741-0.726,1.356-0.726   C18.164,25.193,18.808,25.933,18.808,26.548z"/><path class="st3" d="M18.493,6.86c0,0.435-1.719,0.003-3.192,0.003s-2.854,0.1-2.854-0.335s1.411-1.517,2.884-1.517   S18.493,6.425,18.493,6.86z"/><ellipse class="st3" cx="15.191" cy="8.015" rx="1.002" ry="0.508"/><path class="st4" d="M12.798,11.328c0,0-3.01,7.355-3.003,14.598c0,0-3.542-2.76-2.742-7.299   C7.053,18.627,6.959,10.641,12.798,11.328z"/><path class="st4" d="M18.088,11.229c0,0,1.964,8.841,0.538,16.962c0,0,4.543-2.397,4.527-7.644   C23.153,20.546,24.823,11.61,18.088,11.229z"/><path d="M10.953,15.392c-0.37,0.786-0.929,1.781-1.453,1.781s-0.823-0.598-0.884-1.464c-0.13-1.861,0.889-2.207,1.414-2.207   C10.554,13.502,11.53,14.166,10.953,15.392z"/><path d="M12.825,20.463c0,1.079-0.426,2.272-1.505,2.272s-1.708-0.811-1.867-1.867c-0.161-1.067,0.745-1.867,1.824-1.867   S12.825,19.384,12.825,20.463z"/><path class="st5" d="M27.58,17.217h-1.665l-1.761-4.148c-0.074-0.174-0.26-0.272-0.442-0.235l-1.272,0.247   c-0.35-0.563-0.758-1.014-1.217-1.372c0.025-0.147,0.007-0.287-0.002-0.355c-0.051-0.359-0.143-0.727-0.27-1.093l1.218-1.009   c0.087-0.072,0.14-0.178,0.144-0.292c0.005-0.113-0.04-0.223-0.122-0.301l-0.704-0.68l3.081-2.534   c0.17-0.14,0.194-0.391,0.054-0.56c-0.14-0.171-0.392-0.194-0.56-0.055l-3.426,2.818c-0.087,0.072-0.141,0.178-0.145,0.292   c-0.005,0.114,0.039,0.224,0.122,0.302l0.705,0.681l-0.695,0.576c-0.421-0.813-1.056-1.569-1.945-2.127   c0.009-0.033,0.021-0.066,0.021-0.102c0-0.4-0.234-1.032-0.757-1.545c-0.173-0.17-0.404-0.349-0.702-0.508   c2.094-3.242,1.759-4.531,1.712-4.671C18.88,0.343,18.664,0.24,18.462,0.3c-0.205,0.061-0.323,0.28-0.271,0.487   c0.003,0.011,0.237,1.154-1.712,4.128C16.063,4.8,15.565,4.73,14.968,4.74c-0.358,0.007-0.678,0.05-0.973,0.114   c-1.94-2.922-1.754-4.082-1.743-4.133c0.06-0.205-0.052-0.422-0.255-0.49c-0.212-0.072-0.435,0.042-0.505,0.251   c-0.047,0.14-0.374,1.422,1.716,4.632c-1.278,0.578-1.729,1.675-1.729,2.156c0,0.036,0.011,0.068,0.02,0.101   c-0.896,0.562-1.534,1.325-1.955,2.144L8.829,8.922l0.706-0.68c0.082-0.079,0.126-0.189,0.122-0.302   c-0.005-0.114-0.057-0.22-0.145-0.292L6.085,4.829c-0.168-0.138-0.42-0.115-0.56,0.055c-0.14,0.17-0.115,0.42,0.055,0.56   l3.08,2.534l-0.705,0.68C7.874,8.737,7.83,8.846,7.834,8.96c0.004,0.113,0.057,0.219,0.144,0.292l1.242,1.028   c-0.123,0.36-0.213,0.721-0.263,1.074c-0.013,0.091-0.035,0.306,0.045,0.5c-0.455,0.335-0.835,0.717-1.148,1.141l-1.452-0.282   c-0.185-0.037-0.371,0.063-0.443,0.237l-1.766,4.224H2.42c-0.22,0-0.398,0.179-0.398,0.399S2.2,17.97,2.42,17.97h2.039   c0.16,0,0.305-0.097,0.367-0.245l1.743-4.17l0.828,0.161c-0.907,1.702-1.054,3.88-1.054,6.17c0,1.332,0.242,2.477,0.619,3.487   l-0.709,1.56l-2.456,0.353c-0.218,0.031-0.369,0.232-0.338,0.45c0.029,0.198,0.199,0.342,0.394,0.342   c0.019,0,0.038-0.002,0.057-0.005l2.672-0.383c0.135-0.018,0.25-0.105,0.306-0.229l0.506-1.113c2.242,4.321,7.33,5.422,7.396,5.435   c0.026,0.005,0.052,0.008,0.079,0.008c0.016,0,0.031-0.001,0.046-0.003c0.001,0,0.022-0.003,0.027-0.004   c0.011,0.001,0.021,0.007,0.032,0.007c0.002,0,0.003,0,0.005,0c0.061,0,0.117-0.016,0.168-0.041   c1.061-0.183,5.777-1.233,7.782-5.523l0.48,1.058c0.056,0.124,0.172,0.211,0.306,0.229l2.672,0.382   c0.019,0.003,0.038,0.005,0.057,0.005c0.194,0,0.365-0.144,0.393-0.342c0.031-0.218-0.12-0.419-0.337-0.45l-2.457-0.352   l-0.715-1.574c0.311-0.961,0.506-2.043,0.506-3.298c0-2.724-0.361-4.672-1-6.071l0.712-0.138l1.737,4.094   c0.062,0.147,0.207,0.243,0.366,0.243h1.929c0.22,0,0.399-0.179,0.399-0.399C27.979,17.396,27.8,17.217,27.58,17.217z    M14.983,5.536c1.042-0.016,1.875,0.242,2.401,0.757c0.23,0.226,0.358,0.454,0.431,0.64c-0.761-0.312-1.657-0.499-2.709-0.499   c-0.006,0-0.011,0.003-0.016,0.003c-0.007,0-0.012-0.004-0.019-0.003c-1.046,0-1.938,0.184-2.695,0.492   C12.604,6.415,13.288,5.569,14.983,5.536z M15.071,7.23c0.006,0,0.012-0.003,0.017,0c0.007-0.002,0.01,0,0.017,0   c3.32,0,4.879,2.061,5.261,3.945c-1.423-0.717-3.193-0.853-5.156-0.857c-0.002,0-0.004-0.001-0.006-0.001c-0.002,0-0.003,0-0.005,0   c-0.002,0-0.004,0.001-0.006,0.001c-0.035,0-0.07-0.001-0.105-0.001c-2.352,0-4.061,0.393-5.323,1.061   C10.074,9.443,11.631,7.23,15.071,7.23z M7.139,19.887c0-4.901,0.582-8.66,7.658-8.764l-0.211,17.792   C13.049,28.506,7.139,26.505,7.139,19.887z M15.382,28.902l0.211-17.784c4.514,0.051,7.445,0.898,7.445,8.769   C23.038,26.799,17.236,28.526,15.382,28.902z"/><path d="M16.907,20.763c0,1.079,0.426,2.272,1.505,2.272s1.708-0.811,1.867-1.867c0.161-1.067-0.745-1.867-1.824-1.867   S16.907,19.684,16.907,20.763z"/><path d="M19.773,14.448c0,0.699,0.267,1.471,0.945,1.471s1.072-0.525,1.172-1.209c0.101-0.691-0.467-1.209-1.145-1.209   C20.068,13.502,19.773,13.75,19.773,14.448z"/><ellipse class="st3" cx="13.144" cy="16.614" rx="1.184" ry="1.49" transform="matrix(0.9632 -0.2687 0.2687 0.9632 -3.9804 4.1423)"/></g></svg>