<?xml version="1.0" encoding="iso-8859-1"?><!-- Generator: Adobe Illustrator 19.2.1, SVG Export Plug-In . SVG Version: 6.00 Build 0)  --><svg xmlns="http://www.w3.org/2000/svg" xmlns:xlink="http://www.w3.org/1999/xlink" version="1.1" id="Layer_1" x="0px" y="0px" viewBox="0 0 80 80" style="enable-background:new 0 0 80 80;" xml:space="preserve" width="80" height="80">
<g>
	<path style="fill:#8BB7F0;" d="M40,70.5c-1.248,0-2.374-0.655-3.014-1.751L36.842,68.5H6c-1.93,0-3.5-1.57-3.5-3.5V24   c0-1.93,1.57-3.5,3.5-3.5h68c1.93,0,3.5,1.57,3.5,3.5v41c0,1.93-1.57,3.5-3.5,3.5H43.158l-0.145,0.249   C42.374,69.845,41.248,70.5,40,70.5z"/>
	<path style="fill:#4E7AB5;" d="M74,21c1.654,0,3,1.346,3,3v41c0,1.654-1.346,3-3,3H43.445H42.87l-0.289,0.497   C42.033,69.438,41.068,70,40,70s-2.033-0.562-2.581-1.503L37.13,68h-0.575H6c-1.654,0-3-1.346-3-3V24c0-1.654,1.346-3,3-3H74    M74,20H6c-2.209,0-4,1.791-4,4v41c0,2.209,1.791,4,4,4h30.555c0.693,1.191,1.968,2,3.445,2s2.752-0.809,3.445-2H74   c2.209,0,4-1.791,4-4V24C78,21.791,76.209,20,74,20L74,20z"/>
</g>
<g>
	<path style="fill:#FFFFFF;" d="M40.009,64.313c-1.423-1.308-7.055-5.819-17.009-5.819c-9.024,0-14.496,3.708-16.5,5.375V15.21   c0.927-0.875,6.509-5.716,16.5-5.716c10.929,0,16.582,5.792,16.638,5.851l0.36,0.377l0.362-0.376   c0.057-0.059,5.758-5.852,16.64-5.852c9.946,0,15.564,4.841,16.5,5.717v48.691c-2.045-1.642-7.696-5.408-16.5-5.408   C47.347,58.494,41.484,63.021,40.009,64.313z"/>
	<g>
		<path style="fill:#788B9C;" d="M57,9.994c9.315,0,14.752,4.321,16,5.437v47.466c-2.581-1.857-8.029-4.903-16-4.903    c-9.192,0-15.03,4.051-16.984,5.658c-1.895-1.626-7.549-5.658-17.016-5.658c-8.143,0-13.464,2.983-16,4.852V15.427    c1.233-1.118,6.601-5.433,16-5.433c10.69,0,16.222,5.639,16.275,5.694l0.72,0.755l0.725-0.75C40.776,15.636,46.356,9.994,57,9.994     M57,8.994C45.752,8.994,40,15,40,15s-5.703-6.006-17-6.006S6,15,6,15v50c0,0,5.691-6.006,17-6.006S40,65,40,65    s6.06-6.006,17-6.006S74,65,74,65V15C74,15,68.248,8.994,57,8.994L57,8.994z"/>
	</g>
</g>
<path style="fill:#E1EBF2;" d="M73,63c-2.556-1.851-8.008-5-16-5c-9.241,0-15.087,4.09-16.985,5.665c0,0-0.015-36.04-0.015-47.165  c0.406-0.75,6.156-6.5,17-6.5c9.23,0,14.661,4.068,16,5.25V63z"/>
<circle style="fill:#36404D;" cx="57" cy="22" r="3"/>
<g>
	<polygon style="fill:#36404D;" points="60,47 60,29 52,29 52,31 54,31 54,47 52,47 52,49 62,49 62,47  "/>
</g>
</svg>