<?xml version="1.0" ?><svg height="24" id="svg1630" version="1.1" viewBox="0 0 6.3499999 6.3500002" width="24" xmlns="http://www.w3.org/2000/svg" xmlns:cc="http://creativecommons.org/ns#" xmlns:dc="http://purl.org/dc/elements/1.1/" xmlns:inkscape="http://www.inkscape.org/namespaces/inkscape" xmlns:rdf="http://www.w3.org/1999/02/22-rdf-syntax-ns#" xmlns:sodipodi="http://sodipodi.sourceforge.net/DTD/sodipodi-0.dtd" xmlns:svg="http://www.w3.org/2000/svg"><defs id="defs1624"/><g id="layer1"><path d="m 2.9104429,0.52916689 c -0.1461051,1.5e-5 -0.2645427,0.1184467 -0.2645571,0.2645446 V 2.3892431 c 0.1325678,0.7072292 0.3468644,2.3694737 0.7936713,2.6371743 0.7054858,0 1.4109716,0 2.1164574,0 0.1461047,-1.45e-5 0.2645426,-0.1184463 0.2645571,-0.2645439 v -2.631491 c -1.19e-5,-0.069651 -0.02749,-0.136488 -0.076473,-0.1860076 L 4.4213128,0.60770389 c -0.04969,-0.050246 -0.1235429,-0.078537 -0.1880838,-0.078537 -0.4526026,0 -0.9399085,-10e-7 -1.3227861,0 z" id="path1745" style="color:#000000;font-style:normal;font-variant:normal;font-weight:normal;font-stretch:normal;font-size:medium;line-height:normal;font-family:sans-serif;font-variant-ligatures:normal;font-variant-position:normal;font-variant-caps:normal;font-variant-numeric:normal;font-variant-alternates:normal;font-variant-east-asian:normal;font-feature-settings:normal;font-variation-settings:normal;text-indent:0;text-align:start;text-decoration:none;text-decoration-line:none;text-decoration-style:solid;text-decoration-color:#000000;letter-spacing:normal;word-spacing:normal;text-transform:none;writing-mode:lr-tb;direction:ltr;text-orientation:mixed;dominant-baseline:auto;baseline-shift:baseline;text-anchor:start;white-space:normal;shape-padding:0;shape-margin:0;inline-size:0;clip-rule:nonzero;display:inline;overflow:visible;visibility:visible;isolation:auto;mix-blend-mode:normal;color-interpolation:sRGB;color-interpolation-filters:linearRGB;solid-color:#000000;solid-opacity:1;vector-effect:none;fill:#3771c8;fill-opacity:1;fill-rule:nonzero;stroke:none;stroke-width:0.529103;stroke-linecap:round;stroke-linejoin:round;stroke-miterlimit:4;stroke-dasharray:none;stroke-dashoffset:0;stroke-opacity:1;paint-order:stroke fill markers;color-rendering:auto;image-rendering:auto;shape-rendering:auto;text-rendering:auto;enable-background:accumulate;stop-color:#000000"/><path d="M 5.8205711,2.3814925 V 2.1303822 c 0,-0.099521 -0.052681,-0.1622082 -0.076481,-0.1860063 L 4.4213041,0.60770489 c -0.059684,-0.059681 -0.1315016,-0.07853 -0.1880814,-0.07853 -0.088184,8e-6 -0.1763678,-4e-6 -0.2645521,-8e-6 V 2.1164309 c -2.644e-4,0.1465014 0.1185653,0.2653324 0.2650741,0.2650608 z" id="path1749" style="color:#000000;font-style:normal;font-variant:normal;font-weight:normal;font-stretch:normal;font-size:medium;line-height:normal;font-family:sans-serif;font-variant-ligatures:normal;font-variant-position:normal;font-variant-caps:normal;font-variant-numeric:normal;font-variant-alternates:normal;font-variant-east-asian:normal;font-feature-settings:normal;font-variation-settings:normal;text-indent:0;text-align:start;text-decoration:none;text-decoration-line:none;text-decoration-style:solid;text-decoration-color:#000000;letter-spacing:normal;word-spacing:normal;text-transform:none;writing-mode:lr-tb;direction:ltr;text-orientation:mixed;dominant-baseline:auto;baseline-shift:baseline;text-anchor:start;white-space:normal;shape-padding:0;shape-margin:0;inline-size:0;clip-rule:nonzero;display:inline;overflow:visible;visibility:visible;isolation:auto;mix-blend-mode:normal;color-interpolation:sRGB;color-interpolation-filters:linearRGB;solid-color:#000000;solid-opacity:1;vector-effect:none;fill:#87aade;fill-opacity:1;fill-rule:nonzero;stroke:none;stroke-width:0.529101;stroke-linecap:butt;stroke-linejoin:round;stroke-miterlimit:4;stroke-dasharray:none;stroke-dashoffset:0;stroke-opacity:1;paint-order:stroke fill markers;color-rendering:auto;image-rendering:auto;shape-rendering:auto;text-rendering:auto;enable-background:accumulate;stop-color:#000000"/><path d="M 0.79450604,1.3234506 C 0.64834995,1.3228888 0.52942385,1.4409342 0.52890685,1.5870832 v 3.9681619 c -5.65e-4,0.1469123 0.1186797,0.2661505 0.26559919,0.2655856 0.88142326,0 1.76284646,0 2.64426976,0 0.1469191,5.557e-4 0.2661631,-0.1186733 0.2655985,-0.2655856 V 2.9247757 C 3.7048318,2.8546617 3.6774384,2.7872335 3.6282103,2.7373034 L 2.3041227,1.401564 C 2.2545097,1.351622 2.1870388,1.323512 2.1166412,1.323451 c -0.4407115,0 -0.8814231,0 -1.32213516,-4e-7 z" id="path1711" style="color:#000000;font-style:normal;font-variant:normal;font-weight:normal;font-stretch:normal;font-size:medium;line-height:normal;font-family:sans-serif;font-variant-ligatures:normal;font-variant-position:normal;font-variant-caps:normal;font-variant-numeric:normal;font-variant-alternates:normal;font-variant-east-asian:normal;font-feature-settings:normal;font-variation-settings:normal;text-indent:0;text-align:start;text-decoration:none;text-decoration-line:none;text-decoration-style:solid;text-decoration-color:#000000;letter-spacing:normal;word-spacing:normal;text-transform:none;writing-mode:lr-tb;direction:ltr;text-orientation:mixed;dominant-baseline:auto;baseline-shift:baseline;text-anchor:start;white-space:normal;shape-padding:0;shape-margin:0;inline-size:0;clip-rule:nonzero;display:inline;overflow:visible;visibility:visible;isolation:auto;mix-blend-mode:normal;color-interpolation:sRGB;color-interpolation-filters:linearRGB;solid-color:#000000;solid-opacity:1;vector-effect:none;fill:#3771c8;fill-opacity:1;fill-rule:nonzero;stroke:none;stroke-width:0.529103;stroke-linecap:round;stroke-linejoin:round;stroke-miterlimit:4;stroke-dasharray:none;stroke-dashoffset:0;stroke-opacity:1;color-rendering:auto;image-rendering:auto;shape-rendering:auto;text-rendering:auto;enable-background:accumulate;stop-color:#000000"/><path d="M 3.7046304,3.1746082 V 2.9245315 c 0,-0.089931 -0.03926,-0.1498294 -0.076473,-0.1870412 L 2.304338,1.4013359 c -0.0567,-0.056697 -0.1228733,-0.078019 -0.1875668,-0.078019 -0.087841,0 -0.1756826,0 -0.2635237,0 V 2.9090317 C 1.8526892,3.0551298 1.9706661,3.174025 2.1167712,3.1746091 Z" id="path1707" style="color:#000000;font-style:normal;font-variant:normal;font-weight:normal;font-stretch:normal;font-size:medium;line-height:normal;font-family:sans-serif;font-variant-ligatures:normal;font-variant-position:normal;font-variant-caps:normal;font-variant-numeric:normal;font-variant-alternates:normal;font-variant-east-asian:normal;font-feature-settings:normal;font-variation-settings:normal;text-indent:0;text-align:start;text-decoration:none;text-decoration-line:none;text-decoration-style:solid;text-decoration-color:#000000;letter-spacing:normal;word-spacing:normal;text-transform:none;writing-mode:lr-tb;direction:ltr;text-orientation:mixed;dominant-baseline:auto;baseline-shift:baseline;text-anchor:start;white-space:normal;shape-padding:0;shape-margin:0;inline-size:0;clip-rule:nonzero;display:inline;overflow:visible;visibility:visible;isolation:auto;mix-blend-mode:normal;color-interpolation:sRGB;color-interpolation-filters:linearRGB;solid-color:#000000;solid-opacity:1;vector-effect:none;fill:#87aade;fill-opacity:1;fill-rule:nonzero;stroke:none;stroke-width:0.529101;stroke-linecap:butt;stroke-linejoin:round;stroke-miterlimit:4;stroke-dasharray:none;stroke-dashoffset:0;stroke-opacity:1;paint-order:stroke fill markers;color-rendering:auto;image-rendering:auto;shape-rendering:auto;text-rendering:auto;enable-background:accumulate;stop-color:#000000"/><path d="m 2.9109628,0.52916789 c -0.1461053,1.5e-5 -0.2645432,0.1184754 -0.2645575,0.2646092 V 1.7462663 L 2.3048574,1.4015512 C 2.2553244,1.3516772 2.188092,1.3236592 2.117807,1.3235122 H 0.79501975 c -0.14603,-3.704e-4 -0.2650749,0.1175182 -0.2655919,0.2635754 v 3.97017 c 5.29e-4,0.1460571 0.1195619,0.263957 0.2655919,0.263575 H 3.439561 C 3.5855901,5.821203 3.7041179,5.7033147 3.7046352,5.5572576 v -0.529735 h 1.8519026 c 0.146105,-1.51e-5 0.2645429,-0.1184759 0.2645574,-0.264609 V 2.1307766 C 5.8210833,2.0611086 5.7936053,1.9942553 5.7446214,1.9447232 L 4.4218343,0.60772389 c -0.04969,-0.050258 -0.1174162,-0.078544 -0.188084,-0.078556 -0.4409292,0 -0.8818582,-1e-6 -1.3227875,0 z M 3.1755201,1.0583863 H 3.9691928 V 2.1168225 C 3.9689283,2.2633599 4.0877582,2.3822201 4.234267,2.3819484 H 5.2919804 V 4.4983046 H 3.7046352 v -1.573701 c -1.19e-5,-0.06967 -0.02749,-0.1365213 -0.076474,-0.1860532 L 3.1770698,2.2832368 c -0.00285,-0.4263231 -0.00159,-0.8595982 -0.00156,-1.2248505 z m 1.3222711,0.3788252 0.411304,0.4155187 H 4.4977912 Z M 1.0585436,1.8522134 h 0.7941892 v 1.0579192 c -5.556e-4,0.14674 0.1183628,0.265916 0.2650742,0.2656429 h 1.0577131 c -0.00101,0.6938251 9.79e-4,1.456849 5.292e-4,2.1158481 H 1.058556 Z M 2.3813312,2.2305219 2.7926353,2.6465574 H 2.3813312 Z" id="path2386" style="color:#000000;font-style:normal;font-variant:normal;font-weight:normal;font-stretch:normal;font-size:medium;line-height:normal;font-family:sans-serif;font-variant-ligatures:normal;font-variant-position:normal;font-variant-caps:normal;font-variant-numeric:normal;font-variant-alternates:normal;font-variant-east-asian:normal;font-feature-settings:normal;font-variation-settings:normal;text-indent:0;text-align:start;text-decoration:none;text-decoration-line:none;text-decoration-style:solid;text-decoration-color:#000000;letter-spacing:normal;word-spacing:normal;text-transform:none;writing-mode:lr-tb;direction:ltr;text-orientation:mixed;dominant-baseline:auto;baseline-shift:baseline;text-anchor:start;white-space:normal;shape-padding:0;shape-margin:0;inline-size:0;clip-rule:nonzero;display:inline;overflow:visible;visibility:visible;isolation:auto;mix-blend-mode:normal;color-interpolation:sRGB;color-interpolation-filters:linearRGB;solid-color:#000000;solid-opacity:1;vector-effect:none;fill:#374548;fill-opacity:1;fill-rule:nonzero;stroke:none;stroke-width:0.529167;stroke-linecap:round;stroke-linejoin:round;stroke-miterlimit:4;stroke-dasharray:none;stroke-dashoffset:0;stroke-opacity:1;color-rendering:auto;image-rendering:auto;shape-rendering:auto;text-rendering:auto;enable-background:accumulate;stop-color:#000000"/></g></svg>