<?xml version="1.0" encoding="iso-8859-1"?>
<!-- Generator: Adobe Illustrator 19.0.0, SVG Export Plug-In . SVG Version: 6.00 Build 0)  -->
<svg version="1.1" id="Layer_1" xmlns="http://www.w3.org/2000/svg" xmlns:xlink="http://www.w3.org/1999/xlink" x="0px" y="0px"
	 viewBox="0 0 504.149 504.149" style="enable-background:new 0 0 504.149 504.149;" xml:space="preserve">
<polygon style="fill:#CC8342;" points="433.488,399.409 252.074,504.149 70.661,399.409 70.661,189.915 252.074,85.175 
	433.488,189.915 "/>
<polyline style="fill:#A86743;" points="252.074,85.175 433.488,189.915 433.488,399.409 252.074,504.149 "/>
<polygon style="fill:#4F2A19;" points="70.661,189.915 70.661,190.041 252.074,294.78 433.488,190.041 433.488,189.915 
	252.074,85.175 "/>
<polyline style="fill:#30150A;" points="252.074,294.78 433.488,190.041 433.488,189.915 252.074,85.175 "/>
<path style="fill:#FF9D00;" d="M339.532,75.92L271.759,8.147c-10.854-10.862-28.483-10.862-39.329,0L164.64,75.92
	c-10.878,10.878-10.878,28.491,0,39.353c10.847,10.878,28.491,10.878,39.353,0l27.215-27.215v71.2
	c0,11.524,9.342,20.858,20.866,20.858s20.866-9.342,20.866-20.858v-71.2l27.231,27.215c5.419,5.427,12.556,8.153,19.661,8.153
	c7.121,0,14.257-2.725,19.684-8.153C350.378,104.411,350.378,86.798,339.532,75.92z"/>
<path style="fill:#FF6700;" d="M271.751,8.147c-10.854-10.862-28.483-10.862-39.329,0l-60.826,60.818l39.353,39.353l20.259-20.259
	v40.527l39.629,39.645c1.315-2.741,2.111-5.75,2.111-8.972v-71.2l27.231,27.215c5.419,5.427,12.556,8.153,19.661,8.153
	c7.121,0,14.257-2.725,19.684-8.153c10.854-10.862,10.854-28.475,0-39.353L271.751,8.147z"/>
<g>
</g>
<g>
</g>
<g>
</g>
<g>
</g>
<g>
</g>
<g>
</g>
<g>
</g>
<g>
</g>
<g>
</g>
<g>
</g>
<g>
</g>
<g>
</g>
<g>
</g>
<g>
</g>
<g>
</g>
</svg>
