<?xml version="1.0" encoding="iso-8859-1"?>
<!-- Generator: Adobe Illustrator 21.1.0, SVG Export Plug-In . SVG Version: 6.00 Build 0)  -->
<svg version="1.1" id="Layer_1" xmlns="http://www.w3.org/2000/svg" xmlns:xlink="http://www.w3.org/1999/xlink" x="0px" y="0px"
	 viewBox="0 0 24 24" enable-background="new 0 0 24 24" xml:space="preserve">
<g>
	<path fill="#303C42" d="M20.5,15.0505371V13.5c0-1.1030273-0.8974609-2-2-2h-6V8.9494629C14.4681396,8.7001953,16,7.0343628,16,5
		c0-2.2055664-1.7939453-4-4-4S8,2.7944336,8,5c0,2.0343628,1.5318604,3.7001953,3.5,3.9494629V11.5h-6
		c-1.1025391,0-2,0.8969727-2,2v1.5505371C1.5318604,15.2998047,0,16.9656372,0,19c0,2.2055664,1.7939453,4,4,4s4-1.7944336,4-4
		c0-2.0343628-1.5318604-3.7001953-3.5-3.9494629V13.5c0-0.5512695,0.4482422-1,1-1h13c0.5517578,0,1,0.4487305,1,1v1.5505371
		C17.5318604,15.2998047,16,16.9656372,16,19c0,2.2055664,1.7939453,4,4,4s4-1.7944336,4-4
		C24,16.9656372,22.4681396,15.2998047,20.5,15.0505371z"/>
	<circle fill="#3D82C4" cx="12" cy="5" r="3"/>
	<path opacity="0.1" fill="#010101" d="M13.4344482,2.3815918C13.4765015,2.5813599,13.5,2.7879028,13.5,3
		c0,1.6542969-1.3457031,3-3,3C9.9777222,6,9.4936523,5.8539429,9.0655518,5.6183472C9.3515625,6.9766846,10.5578003,8,12,8
		c1.6542969,0,3-1.3457031,3-3C15,3.8679199,14.3624268,2.8922729,13.4344482,2.3815918z"/>
	<circle fill="#3D82C4" cx="20" cy="19" r="3"/>
	<path opacity="0.1" fill="#010101" d="M21.4344482,16.3815918C21.4765015,16.5813599,21.5,16.7879028,21.5,17
		c0,1.6542969-1.3457031,3-3,3c-0.5222778,0-1.0063477-0.1460571-1.4344482-0.3816528C17.3515625,20.9766846,18.5578003,22,20,22
		c1.6542969,0,3-1.3457031,3-3C23,17.8679199,22.3624268,16.8922729,21.4344482,16.3815918z"/>
	<circle fill="#3D82C4" cx="4" cy="19" r="3"/>
	<path opacity="0.1" fill="#010101" d="M5.4344482,16.3815918C5.4765015,16.5813599,5.5,16.7879028,5.5,17
		c0,1.6542969-1.3457031,3-3,3c-0.5222778,0-1.0063477-0.1460571-1.4344482-0.3816528C1.3515625,20.9766846,2.5578003,22,4,22
		c1.6542969,0,3-1.3457031,3-3C7,17.8679199,6.3624268,16.8922729,5.4344482,16.3815918z"/>
	<linearGradient id="SVGID_1_" gradientUnits="userSpaceOnUse" x1="3.7729573" y1="10.0288973" x2="24.1629734" y2="19.5369186">
		<stop  offset="0" style="stop-color:#FFFFFF;stop-opacity:0.2"/>
		<stop  offset="1" style="stop-color:#FFFFFF;stop-opacity:0"/>
	</linearGradient>
	<path fill="url(#SVGID_1_)" d="M20.5,15.0505371V13.5c0-1.1030273-0.8974609-2-2-2h-6V8.9494629
		C14.4681396,8.7001953,16,7.0343628,16,5c0-2.2055664-1.7939453-4-4-4S8,2.7944336,8,5
		c0,2.0343628,1.5318604,3.7001953,3.5,3.9494629V11.5h-6c-1.1025391,0-2,0.8969727-2,2v1.5505371
		C1.5318604,15.2998047,0,16.9656372,0,19c0,2.2055664,1.7939453,4,4,4s4-1.7944336,4-4
		c0-2.0343628-1.5318604-3.7001953-3.5-3.9494629V13.5c0-0.5512695,0.4482422-1,1-1h13c0.5517578,0,1,0.4487305,1,1v1.5505371
		C17.5318604,15.2998047,16,16.9656372,16,19c0,2.2055664,1.7939453,4,4,4s4-1.7944336,4-4
		C24,16.9656372,22.4681396,15.2998047,20.5,15.0505371z"/>
</g>
<g>
</g>
<g>
</g>
<g>
</g>
<g>
</g>
<g>
</g>
<g>
</g>
<g>
</g>
<g>
</g>
<g>
</g>
<g>
</g>
<g>
</g>
<g>
</g>
<g>
</g>
<g>
</g>
<g>
</g>
</svg>
