<?xml version="1.0" ?><svg data-name="Layer 16" id="Layer_16" viewBox="0 0 32 32" xmlns="http://www.w3.org/2000/svg"><title/><polygon points="22.294 8.902 21.196 13 25.294 14.098 25.294 17.902 21.196 19 22.294 23.098 19 25 16 22 13 25 9.706 23.098 10.804 19 6.706 17.902 6.706 14.098 10.804 13 9.706 8.902 13 7 16 10 19 7 22.294 8.902" style="fill:#a9e5ff"/><circle cx="11" cy="4" r="1" style="fill:#158fcc"/><circle cx="21" cy="4" r="1" style="fill:#158fcc"/><circle cx="3.108" cy="14.33" r="1" style="fill:#158fcc" transform="translate(-10.856 9.856) rotate(-60)"/><circle cx="8.108" cy="5.67" r="1" style="fill:#158fcc" transform="translate(-0.856 9.856) rotate(-60)"/><circle cx="8.108" cy="26.33" r="1" style="fill:#158fcc" transform="translate(-12.079 7.581) rotate(-30)"/><circle cx="3.108" cy="17.67" r="1" style="fill:#158fcc" transform="translate(-8.419 3.921) rotate(-30)"/><circle cx="21" cy="28" r="1" style="fill:#158fcc"/><circle cx="11" cy="28" r="1" style="fill:#158fcc"/><path d="M28,19.8l-2.331.625-1.881-1.086,1.766-.473a1,1,0,1,0-.518-1.932l-3.7.991L18,16l3.338-1.927,3.7,0.991a1,1,0,1,0,.518-1.932l-1.766-.473,1.881-1.086L28,12.2a1,1,0,0,0,.518-1.932l-1.766-.473,0.473-1.766a1,1,0,1,0-1.932-.518L24.668,9.841l-1.881,1.086L23.26,9.161a1,1,0,0,0-1.932-.518l-0.991,3.7L17,14.268V10.414l2.707-2.707a1,1,0,0,0-1.414-1.414L17,7.586V5.414l1.707-1.707a1,1,0,0,0-1.414-1.414L16,3.586,14.707,2.293a1,1,0,0,0-1.414,1.414L15,5.414V7.586L13.707,6.293a1,1,0,0,0-1.414,1.414L15,10.414v3.854l-3.338-1.927-0.991-3.7a1,1,0,0,0-1.932.518l0.473,1.766L7.332,9.841,6.708,7.509a1,1,0,1,0-1.932.518L5.249,9.793l-1.766.473A1,1,0,1,0,4,12.2l2.331-.625,1.881,1.086-1.766.473a1,1,0,1,0,.518,1.932l3.7-.991L14,16l-3.338,1.927-3.7-.991a1,1,0,1,0-.518,1.932l1.766,0.473L6.332,20.427,4,19.8a1,1,0,0,0-.518,1.932l1.766,0.473L4.776,23.973a1,1,0,1,0,1.932.518l0.625-2.332,1.881-1.086L8.74,22.839a1,1,0,1,0,1.932.518l0.991-3.7L15,17.732v3.854l-2.707,2.707a1,1,0,0,0,1.414,1.414L15,24.414v2.172l-1.707,1.707a1,1,0,0,0,1.414,1.414L16,28.414l1.293,1.293a1,1,0,0,0,1.414-1.414L17,26.586V24.414l1.293,1.293a1,1,0,0,0,1.414-1.414L17,21.586V17.732l3.338,1.927,0.991,3.7a1,1,0,0,0,1.932-.518l-0.473-1.766,1.881,1.086,0.625,2.332a1,1,0,1,0,1.932-.518l-0.473-1.766,1.766-.473A1,1,0,0,0,28,19.8Z" style="fill:#158fcc"/><circle cx="28.892" cy="17.67" r="1" style="fill:#158fcc" transform="translate(-0.856 33.856) rotate(-60)"/><circle cx="23.892" cy="26.33" r="1" style="fill:#158fcc" transform="translate(-10.856 33.856) rotate(-60)"/><circle cx="23.892" cy="5.67" r="1" style="fill:#158fcc" transform="translate(0.366 12.706) rotate(-30)"/><circle cx="28.892" cy="14.33" r="1" style="fill:#158fcc" transform="translate(-3.294 16.366) rotate(-30)"/></svg>