<svg xmlns="http://www.w3.org/2000/svg" viewBox="0 0 64 64"><defs><style>.cls-1{fill:#78909c;}.cls-2{fill:#37474f;}.cls-3{fill:#cfd8dd;}.cls-4{fill:#74d800;}.cls-5{fill:#ff2400;}.cls-6{fill:#d3d300;}.cls-7{fill:#ffda02;}.cls-8{fill:#ffb74d;}.cls-9{fill:#ff7f02;}</style></defs><title>Gauge</title><g id="Layer_2" data-name="Layer 2"><g id="Layer_1-2" data-name="Layer 1"><circle class="cls-1" cx="32" cy="32" r="32"/><circle class="cls-2" cx="32" cy="32" r="28"/><path class="cls-3" d="M32,33a1,1,0,0,1-.71-.29l-10-10a1,1,0,0,1,1.41-1.41l10,10A1,1,0,0,1,32,33Z"/><path class="cls-4" d="M15.8,46.79h0a1,1,0,0,1-1.46,0A22.72,22.72,0,0,1,9.1,34.07a1,1,0,0,1,1-1.07h0a1,1,0,0,1,1,.93,20.72,20.72,0,0,0,4.76,11.5A1,1,0,0,1,15.8,46.79Z"/><path class="cls-5" d="M54.9,34.07a22.72,22.72,0,0,1-5.24,12.68,1,1,0,0,1-1.46,0h0a1,1,0,0,1,0-1.36,20.72,20.72,0,0,0,4.76-11.5,1,1,0,0,1,1-.93h0A1,1,0,0,1,54.9,34.07Z"/><path class="cls-6" d="M15.81,17.22h0a1,1,0,0,1,0,1.35,20.89,20.89,0,0,0-4.77,11.49,1,1,0,0,1-1,.93h0a1,1,0,0,1-1-1.07,22.89,22.89,0,0,1,5.25-12.67A1,1,0,0,1,15.81,17.22Z"/><path class="cls-7" d="M31,10.1h0a1,1,0,0,1-.93,1,20.89,20.89,0,0,0-11.49,4.77,1,1,0,0,1-1.35,0h0a1,1,0,0,1,0-1.46A22.89,22.89,0,0,1,29.93,9.1,1,1,0,0,1,31,10.1Z"/><path class="cls-8" d="M46.78,15.81h0a1,1,0,0,1-1.35,0,20.89,20.89,0,0,0-11.49-4.77,1,1,0,0,1-.93-1h0a1,1,0,0,1,1.07-1,22.89,22.89,0,0,1,12.67,5.25A1,1,0,0,1,46.78,15.81Z"/><path class="cls-9" d="M53.9,31h0a1,1,0,0,1-1-.93,20.89,20.89,0,0,0-4.77-11.49,1,1,0,0,1,0-1.35h0a1,1,0,0,1,1.46,0A22.89,22.89,0,0,1,54.9,29.93,1,1,0,0,1,53.9,31Z"/><circle class="cls-3" cx="32" cy="32" r="4"/><circle class="cls-1" cx="32" cy="32" r="2"/></g></g></svg>