<?xml version="1.0" ?><svg height="32" id="svg17515" version="1.1" viewBox="0 0 32 32.000001" width="32" xmlns="http://www.w3.org/2000/svg" xmlns:cc="http://creativecommons.org/ns#" xmlns:dc="http://purl.org/dc/elements/1.1/" xmlns:inkscape="http://www.inkscape.org/namespaces/inkscape" xmlns:rdf="http://www.w3.org/1999/02/22-rdf-syntax-ns#" xmlns:sodipodi="http://sodipodi.sourceforge.net/DTD/sodipodi-0.dtd" xmlns:svg="http://www.w3.org/2000/svg"><defs id="defs17517"><clipPath clipPathUnits="userSpaceOnUse" id="clipPath32617-9-8-8-9"><circle cx="-64.623535" cy="50.047192" id="path32619-2-3-5-1" r="38.553814" style="fill:#4bb7c0;fill-opacity:1;stroke:none" transform="matrix(9.3443438,0,0,9.3443438,-627.91229,-5859.5225)"/></clipPath><clipPath clipPathUnits="userSpaceOnUse" id="clipPath19550"><circle cx="-64.623535" cy="50.047192" id="circle19552" r="38.553814" style="fill:#4bb7c0;fill-opacity:1;stroke:none" transform="matrix(9.3443438,0,0,9.3443438,-627.91229,-5859.5225)"/></clipPath></defs><g id="layer1" transform="translate(0,-1020.3622)"><g id="g42588" style="display:inline" transform="translate(607.11725,80.263631)"><g id="g38522"><path d="m -586.24464,948.78159 c 0,0 1.07311,-1.97044 1.99958,-2.49967 1.02312,-0.58443 2.32396,-0.41645 3.49926,-0.49994 1.16348,-0.083 3.49926,0 3.49926,0 0,0 -2.32186,2.94502 -3.49926,3.49955 -2.05321,0.96707 -3.63738,0.67041 -5.49884,-0.49994 z" id="path6485" style="fill:#8ba753;fill-opacity:1;fill-rule:evenodd;stroke:none;stroke-width:1px;stroke-linecap:round;stroke-linejoin:round;stroke-opacity:1"/><path d="m -597.32044,962.26521 c 0,0 2.52262,0.87509 3.82178,0.7986 1.01181,-0.06 2.02795,-0.42255 2.88289,-0.96708 0.88916,-0.56572 1.64736,-1.38102 2.17873,-2.2912 0.23764,-0.40705 0.41328,-1.35233 0.41328,-1.35233 0,0 -0.74488,0.033 -1.11744,0.028 -0.97155,-0.013 -1.96244,-0.36115 -2.91097,-0.15048 -0.65071,0.14448 -1.21474,0.56343 -1.76545,0.93898 -1.26955,0.86509 -3.50282,2.99541 -3.50282,2.99541 z" id="path6493" style="fill:#8ba753;fill-opacity:1;fill-rule:evenodd;stroke:none;stroke-width:1px;stroke-linecap:round;stroke-linejoin:round;stroke-opacity:1"/><path d="m -595.61471,958.09725 c 0,0 -1.95701,-1.81656 -2.49947,-2.99961 -0.42248,-0.92138 -0.57918,-1.98904 -0.4999,-2.99961 0.0824,-1.05076 0.44574,-2.10303 0.99979,-2.99961 0.24778,-0.40095 0.99979,-0.99987 0.99979,-0.99987 0,0 0.32059,0.67321 0.49989,0.99987 0.46755,0.85179 1.24033,1.5632 1.49969,2.49967 0.17791,0.64242 0.0727,1.33713 0,1.99974 -0.16764,1.52721 -0.99979,4.49942 -0.99979,4.49942 z" id="path6489" style="fill:#8ba753;fill-opacity:1;fill-rule:evenodd;stroke:none;stroke-width:1px;stroke-linecap:round;stroke-linejoin:round;stroke-opacity:1"/><path d="m -595.61523,-59.640625 c -0.90551,0.791336 -1.70508,1.542969 -1.70508,1.542969 0,0 0.47324,0.137924 0.76367,0.228515 0.34163,-0.596812 0.64501,-1.189332 0.94141,-1.771484 z" id="path42546" style="color:#000000;font-style:normal;font-variant:normal;font-weight:normal;font-stretch:normal;font-size:medium;line-height:normal;font-family:sans-serif;text-indent:0;text-align:start;text-decoration:none;text-decoration-line:none;text-decoration-style:solid;text-decoration-color:#000000;letter-spacing:normal;word-spacing:normal;text-transform:none;direction:ltr;writing-mode:lr-tb;baseline-shift:baseline;text-anchor:start;white-space:normal;clip-rule:nonzero;display:inline;overflow:visible;visibility:visible;opacity:1;isolation:auto;mix-blend-mode:normal;color-interpolation:sRGB;color-interpolation-filters:linearRGB;solid-color:#000000;solid-opacity:1;fill:#839d51;fill-opacity:1;fill-rule:evenodd;stroke:none;stroke-width:1px;stroke-linecap:round;stroke-linejoin:round;stroke-miterlimit:4;stroke-dasharray:none;stroke-dashoffset:0;stroke-opacity:1;color-rendering:auto;image-rendering:auto;shape-rendering:auto;text-rendering:auto;enable-background:accumulate" transform="translate(0,1020.3622)"/><path d="m -594.96289,-64.882812 c -0.43865,0.701119 -0.8242,1.39053 -1.20313,2.0625 0.20975,0.207085 0.55079,0.554687 0.55079,0.554687 0,0 0.3578,-1.298941 0.65234,-2.617187 z" id="path42550" style="color:#000000;font-style:normal;font-variant:normal;font-weight:normal;font-stretch:normal;font-size:medium;line-height:normal;font-family:sans-serif;text-indent:0;text-align:start;text-decoration:none;text-decoration-line:none;text-decoration-style:solid;text-decoration-color:#000000;letter-spacing:normal;word-spacing:normal;text-transform:none;direction:ltr;writing-mode:lr-tb;baseline-shift:baseline;text-anchor:start;white-space:normal;clip-rule:nonzero;display:inline;overflow:visible;visibility:visible;opacity:1;isolation:auto;mix-blend-mode:normal;color-interpolation:sRGB;color-interpolation-filters:linearRGB;solid-color:#000000;solid-opacity:1;fill:#839d51;fill-opacity:1;fill-rule:evenodd;stroke:none;stroke-width:1px;stroke-linecap:round;stroke-linejoin:round;stroke-miterlimit:4;stroke-dasharray:none;stroke-dashoffset:0;stroke-opacity:1;color-rendering:auto;image-rendering:auto;shape-rendering:auto;text-rendering:auto;enable-background:accumulate" transform="translate(0,1020.3622)"/><path d="m -585.50586,-72.744141 c -0.42552,0.603482 -0.73828,1.164063 -0.73828,1.164063 0.40643,0.255534 0.79778,0.460733 1.18555,0.628906 0.3605,-0.249016 0.51114,-0.699117 0.41406,-1.068359 -0.0952,-0.362158 -0.43668,-0.674652 -0.86133,-0.72461 z" id="path42554" style="color:#000000;font-style:normal;font-variant:normal;font-weight:normal;font-stretch:normal;font-size:medium;line-height:normal;font-family:sans-serif;text-indent:0;text-align:start;text-decoration:none;text-decoration-line:none;text-decoration-style:solid;text-decoration-color:#000000;letter-spacing:normal;word-spacing:normal;text-transform:none;direction:ltr;writing-mode:lr-tb;baseline-shift:baseline;text-anchor:start;white-space:normal;clip-rule:nonzero;display:inline;overflow:visible;visibility:visible;opacity:1;isolation:auto;mix-blend-mode:normal;color-interpolation:sRGB;color-interpolation-filters:linearRGB;solid-color:#000000;solid-opacity:1;fill:#839d51;fill-opacity:1;fill-rule:evenodd;stroke:none;stroke-width:1px;stroke-linecap:round;stroke-linejoin:round;stroke-miterlimit:4;stroke-dasharray:none;stroke-dashoffset:0;stroke-opacity:1;color-rendering:auto;image-rendering:auto;shape-rendering:auto;text-rendering:auto;enable-background:accumulate" transform="translate(0,1020.3622)"/><path d="m -590.61577,952.09803 c 0,0 -1.35772,-2.92492 -1.49968,-4.49942 -0.10582,-1.17354 -0.0743,-2.47058 0.49989,-3.49954 0.63417,-1.13656 2.99937,-2.49968 2.99937,-2.49968 0,0 -0.0329,0.66821 0,0.99987 0.0837,0.84559 0.48619,1.65009 0.49989,2.49968 0.0163,1.01357 -0.18645,2.03563 -0.49989,2.99961 -0.4609,1.41741 -1.99958,3.99948 -1.99958,3.99948 z" id="path6487" style="fill:#88b03c;fill-opacity:1;fill-rule:evenodd;stroke:none;stroke-width:1px;stroke-linecap:round;stroke-linejoin:round;stroke-opacity:1"/><path d="m -593.05624,954.53871 c 0,0 3.26368,1.37582 4.99894,1.49981 0.98856,0.071 2.07659,0.045 2.94037,-0.44094 1.13425,-0.63812 2.49947,-2.99962 2.49947,-2.99962 0,0 -0.66766,0.027 -0.99979,0 -1.01013,-0.084 -1.98581,-0.50683 -2.99937,-0.49993 -0.82664,0.01 -1.65608,0.17998 -2.44047,0.44094 -1.41418,0.47054 -3.99915,1.99974 -3.99915,1.99974 z" id="path6491" style="fill:#88b03c;fill-opacity:1;fill-rule:evenodd;stroke:none;stroke-width:1px;stroke-linecap:round;stroke-linejoin:round;stroke-opacity:1"/><path d="m -600.61366,965.59628 c -0.91126,0.33715 -1.95264,-0.69661 -2.49947,-1.49981 -0.57043,-0.83789 -0.66107,-1.99884 -0.49989,-2.99961 0.2468,-1.5324 0.87396,-2.49547 1.99958,-3.49954 0,0 0.25638,0.7178 0.49989,0.99987 1.1189,1.29583 1.93546,2.46168 1.99958,3.99948 0.0466,1.11695 -0.51128,2.63396 -1.49969,2.99961 z" id="path6495" style="fill:#88b03c;fill-opacity:1;fill-rule:evenodd;stroke:none;stroke-width:1px;stroke-linecap:round;stroke-linejoin:round;stroke-opacity:1"/><path d="m -590.11719,-67.378906 c -1.36676,0.632774 -2.93945,1.554687 -2.93945,1.554687 0,0 0.61893,0.232667 1.00391,0.382813 0.59838,-0.678167 1.24297,-1.325555 1.93554,-1.9375 z" id="path42543" style="color:#000000;font-style:normal;font-variant:normal;font-weight:normal;font-stretch:normal;font-size:medium;line-height:normal;font-family:sans-serif;text-indent:0;text-align:start;text-decoration:none;text-decoration-line:none;text-decoration-style:solid;text-decoration-color:#000000;letter-spacing:normal;word-spacing:normal;text-transform:none;direction:ltr;writing-mode:lr-tb;baseline-shift:baseline;text-anchor:start;white-space:normal;clip-rule:nonzero;display:inline;overflow:visible;visibility:visible;opacity:1;isolation:auto;mix-blend-mode:normal;color-interpolation:sRGB;color-interpolation-filters:linearRGB;solid-color:#000000;solid-opacity:1;fill:#81a53c;fill-opacity:1;fill-rule:evenodd;stroke:none;stroke-width:1px;stroke-linecap:round;stroke-linejoin:round;stroke-miterlimit:4;stroke-dasharray:none;stroke-dashoffset:0;stroke-opacity:1;color-rendering:auto;image-rendering:auto;shape-rendering:auto;text-rendering:auto;enable-background:accumulate" transform="translate(0,1020.3622)"/><path d="m -599.11914,-57.583984 c -0.71765,1.01005 -1.49173,1.960432 -2.35352,2.777343 0.28668,0.109041 0.57914,0.144698 0.85938,0.04102 0.93688,-0.346586 1.47901,-1.7241 1.49414,-2.818359 z" id="path42548" style="color:#000000;font-style:normal;font-variant:normal;font-weight:normal;font-stretch:normal;font-size:medium;line-height:normal;font-family:sans-serif;text-indent:0;text-align:start;text-decoration:none;text-decoration-line:none;text-decoration-style:solid;text-decoration-color:#000000;letter-spacing:normal;word-spacing:normal;text-transform:none;direction:ltr;writing-mode:lr-tb;baseline-shift:baseline;text-anchor:start;white-space:normal;clip-rule:nonzero;display:inline;overflow:visible;visibility:visible;opacity:1;isolation:auto;mix-blend-mode:normal;color-interpolation:sRGB;color-interpolation-filters:linearRGB;solid-color:#000000;solid-opacity:1;fill:#81a53c;fill-opacity:1;fill-rule:evenodd;stroke:none;stroke-width:1px;stroke-linecap:round;stroke-linejoin:round;stroke-miterlimit:4;stroke-dasharray:none;stroke-dashoffset:0;stroke-opacity:1;color-rendering:auto;image-rendering:auto;shape-rendering:auto;text-rendering:auto;enable-background:accumulate" transform="translate(0,1020.3622)"/><path d="m -589.36328,-70.570312 c -0.56181,0.428126 -1.11565,0.872057 -1.66016,1.335937 0.16784,0.393284 0.40821,0.970703 0.40821,0.970703 0,0 0.66366,-1.134267 1.25195,-2.30664 z" id="path42552" style="color:#000000;font-style:normal;font-variant:normal;font-weight:normal;font-stretch:normal;font-size:medium;line-height:normal;font-family:sans-serif;text-indent:0;text-align:start;text-decoration:none;text-decoration-line:none;text-decoration-style:solid;text-decoration-color:#000000;letter-spacing:normal;word-spacing:normal;text-transform:none;direction:ltr;writing-mode:lr-tb;baseline-shift:baseline;text-anchor:start;white-space:normal;clip-rule:nonzero;display:inline;overflow:visible;visibility:visible;opacity:1;isolation:auto;mix-blend-mode:normal;color-interpolation:sRGB;color-interpolation-filters:linearRGB;solid-color:#000000;solid-opacity:1;fill:#81a53c;fill-opacity:1;fill-rule:evenodd;stroke:none;stroke-width:1px;stroke-linecap:round;stroke-linejoin:round;stroke-miterlimit:4;stroke-dasharray:none;stroke-dashoffset:0;stroke-opacity:1;color-rendering:auto;image-rendering:auto;shape-rendering:auto;text-rendering:auto;enable-background:accumulate" transform="translate(0,1020.3622)"/><path d="m -585.62891,948.0957 a 0.50005,0.50005 0 0 0 -0.22461,0.0625 c 0,0 -1.70203,0.90239 -2.56054,1.53711 -1.81724,1.34361 -3.60328,2.81581 -5.08399,4.58008 -1.06487,1.26875 -1.76313,2.73934 -2.54687,4.06836 -0.89727,1.5215 -1.54387,3.12045 -2.48047,4.4668 -0.8648,1.24304 -1.81361,2.43168 -2.91992,3.41211 -1.24672,1.1048 -4.41602,2.93945 -4.41602,2.93945 a 0.50005,0.50005 0 1 0 0.49805,0.86719 c 0,0 3.13077,-1.77252 4.58203,-3.0586 1.1933,-1.05751 2.18814,-2.30865 3.07813,-3.58789 1.02295,-1.47047 1.6738,-3.09715 2.51953,-4.53125 0.81336,-1.37924 1.49475,-2.79211 2.45117,-3.93164 1.40183,-1.67029 3.12599,-3.09787 4.91406,-4.41992 0.70407,-0.52054 2.4375,-1.46094 2.4375,-1.46094 a 0.50005,0.50005 0 0 0 -0.24805,-0.94336 z" id="path6483" style="color:#000000;font-style:normal;font-variant:normal;font-weight:normal;font-stretch:normal;font-size:medium;line-height:normal;font-family:sans-serif;text-indent:0;text-align:start;text-decoration:none;text-decoration-line:none;text-decoration-style:solid;text-decoration-color:#000000;letter-spacing:normal;word-spacing:normal;text-transform:none;direction:ltr;writing-mode:lr-tb;baseline-shift:baseline;text-anchor:start;white-space:normal;clip-rule:nonzero;display:inline;overflow:visible;visibility:visible;opacity:1;isolation:auto;mix-blend-mode:normal;color-interpolation:sRGB;color-interpolation-filters:linearRGB;solid-color:#000000;solid-opacity:1;fill:#88b03c;fill-opacity:1;fill-rule:evenodd;stroke:none;stroke-width:1px;stroke-linecap:round;stroke-linejoin:round;stroke-miterlimit:4;stroke-dasharray:none;stroke-dashoffset:0;stroke-opacity:1;color-rendering:auto;image-rendering:auto;shape-rendering:auto;text-rendering:auto;enable-background:accumulate"/></g></g></g></svg>