<?xml version="1.0" encoding="utf-8"?>
<!-- Generator: Adobe Illustrator 20.0.0, SVG Export Plug-In . SVG Version: 6.00 Build 0)  -->
<svg version="1.1" id="Layer_1" xmlns="http://www.w3.org/2000/svg" xmlns:xlink="http://www.w3.org/1999/xlink" x="0px" y="0px"
	 viewBox="0 0 843.7 491.2" style="enable-background:new 0 0 843.7 491.2;" xml:space="preserve">
<style type="text/css">
	.st0{fill:#020203;}
	.st1{fill:url(#SVGID_1_);}
	.st2{fill:url(#SVGID_2_);}
	.st3{fill:url(#SVGID_3_);}
	.st4{fill:url(#SVGID_4_);}
	.st5{fill:url(#SVGID_5_);}
	.st6{fill:url(#SVGID_6_);}
	.st7{fill:url(#SVGID_7_);}
	.st8{fill:url(#SVGID_8_);}
	.st9{fill:url(#SVGID_9_);}
	.st10{fill:url(#SVGID_10_);}
	.st11{fill:url(#SVGID_11_);}
	.st12{fill:url(#SVGID_12_);}
	.st13{fill:none;stroke:#020203;stroke-width:2;stroke-miterlimit:10;}
</style>
<g>
	<g>
		<path class="st0" d="M4.8,0.4h5.5v37.7h18.1v4.6H4.8V0.4z"/>
		<path class="st0" d="M58,0.4v42.3h-5.5V0.4H58z"/>
		<path class="st0" d="M118,40.9c-2.4,0.9-7.3,2.3-13,2.3c-6.4,0-11.7-1.6-15.8-5.6c-3.6-3.5-5.9-9.2-5.9-15.8
			C83.3,9.2,92,0,106.2,0c4.9,0,8.7,1.1,10.5,1.9l-1.3,4.5c-2.3-1-5.1-1.8-9.4-1.8c-10.3,0-17,6.4-17,17c0,10.7,6.5,17.1,16.3,17.1
			c3.6,0,6-0.5,7.3-1.1V24.9H104v-4.4H118V40.9z"/>
		<path class="st0" d="M150,0.4v17.7h20.5V0.4h5.5v42.3h-5.5V22.9H150v19.8h-5.5V0.4H150z"/>
		<path class="st0" d="M211.6,5.1h-12.9V0.4h31.3v4.6h-12.9v37.7h-5.5V5.1z"/>
		<path class="st0" d="M300.6,0.4v25c0,9.5,4.2,13.5,9.9,13.5c6.3,0,10.3-4.1,10.3-13.5v-25h5.5v24.7c0,13-6.8,18.3-16,18.3
			c-8.7,0-15.2-5-15.2-18.1V0.4H300.6z"/>
		<path class="st0" d="M353.9,0.9c2.6-0.4,6.1-0.8,10.5-0.8c5.4,0,9.4,1.3,11.9,3.5c2.3,2,3.7,5.1,3.7,8.8c0,3.8-1.1,6.8-3.3,9
			c-2.9,3.1-7.6,4.6-12.9,4.6c-1.6,0-3.1-0.1-4.4-0.4v16.9h-5.5V0.9z M359.3,21.3c1.2,0.3,2.7,0.4,4.5,0.4c6.6,0,10.6-3.2,10.6-9
			c0-5.6-4-8.3-10-8.3c-2.4,0-4.2,0.2-5.1,0.4V21.3z"/>
		<path class="st0" d="M14.2,110V92L0.8,67.7H7l6,11.7c1.6,3.2,2.9,5.8,4.2,8.7h0.1c1.2-2.8,2.6-5.5,4.3-8.7l6.1-11.7h6.2L19.7,92
			v18H14.2z"/>
		<path class="st0" d="M90.8,88.4c0,14.6-8.8,22.3-19.6,22.3c-11.2,0-19-8.7-19-21.5c0-13.4,8.3-22.2,19.6-22.2
			C83.3,67,90.8,75.8,90.8,88.4z M58,89.1c0,9,4.9,17.1,13.5,17.1c8.7,0,13.6-8,13.6-17.6c0-8.4-4.4-17.2-13.5-17.2
			C62.5,71.4,58,79.8,58,89.1z"/>
		<path class="st0" d="M121.5,67.7v25c0,9.5,4.2,13.5,9.9,13.5c6.3,0,10.3-4.1,10.3-13.5v-25h5.5v24.7c0,13-6.8,18.3-16,18.3
			c-8.7,0-15.2-5-15.2-18.1V67.7H121.5z"/>
		<path class="st0" d="M174.9,68.2c2.8-0.6,6.7-0.9,10.5-0.9c5.8,0,9.6,1.1,12.2,3.5c2.1,1.9,3.3,4.8,3.3,8c0,5.6-3.5,9.3-8,10.8
			v0.2c3.3,1.1,5.2,4.1,6.2,8.5c1.4,5.9,2.4,10,3.3,11.6h-5.6c-0.7-1.2-1.6-4.8-2.8-10.1c-1.3-5.8-3.5-8-8.5-8.2h-5.1V110h-5.5V68.2
			z M180.3,87.5h5.6c5.8,0,9.5-3.2,9.5-8c0-5.5-4-7.8-9.7-7.9c-2.6,0-4.5,0.3-5.4,0.5V87.5z"/>
		<path class="st0" d="M264,67.7h22.8v4.6h-17.3v14.1h16v4.5h-16V110H264V67.7z"/>
		<path class="st0" d="M318.2,67.7v25c0,9.5,4.2,13.5,9.9,13.5c6.3,0,10.3-4.1,10.3-13.5v-25h5.5v24.7c0,13-6.8,18.3-16,18.3
			c-8.7,0-15.2-5-15.2-18.1V67.7H318.2z"/>
		<path class="st0" d="M379.6,72.3h-12.9v-4.6h31.3v4.6h-12.9V110h-5.5V72.3z"/>
		<path class="st0" d="M426.4,67.7v25c0,9.5,4.2,13.5,9.9,13.5c6.3,0,10.3-4.1,10.3-13.5v-25h5.5v24.7c0,13-6.8,18.3-16,18.3
			c-8.7,0-15.2-5-15.2-18.1V67.7H426.4z"/>
		<path class="st0" d="M479.7,68.2c2.8-0.6,6.7-0.9,10.5-0.9c5.8,0,9.6,1.1,12.2,3.5c2.1,1.9,3.3,4.8,3.3,8c0,5.6-3.5,9.3-8,10.8
			v0.2c3.3,1.1,5.2,4.1,6.2,8.5c1.4,5.9,2.4,10,3.3,11.6h-5.6c-0.7-1.2-1.6-4.8-2.8-10.1c-1.3-5.8-3.5-8-8.5-8.2h-5.1V110h-5.5V68.2
			z M485.2,87.5h5.6c5.8,0,9.5-3.2,9.5-8c0-5.5-4-7.8-9.7-7.9c-2.6,0-4.5,0.3-5.4,0.5V87.5z"/>
		<path class="st0" d="M553.6,90.1h-16.4v15.3h18.3v4.6h-23.8V67.7h22.8v4.6h-17.4v13.4h16.4V90.1z"/>
	</g>
	<radialGradient id="SVGID_1_" cx="384.6631" cy="429.0005" r="1.8963" gradientUnits="userSpaceOnUse">
		<stop  offset="0" style="stop-color:#FFFFFF"/>
		<stop  offset="9.873518e-02" style="stop-color:#C3DDF3"/>
		<stop  offset="0.1141" style="stop-color:#B2D8F2"/>
		<stop  offset="0.1477" style="stop-color:#8FCEF1"/>
		<stop  offset="0.1826" style="stop-color:#6CC5F0"/>
		<stop  offset="0.2188" style="stop-color:#4CBFEE"/>
		<stop  offset="0.2572" style="stop-color:#30BBEE"/>
		<stop  offset="0.3012" style="stop-color:#22BAED"/>
		<stop  offset="0.4203" style="stop-color:#22B7EB"/>
		<stop  offset="0.4814" style="stop-color:#19AFE4"/>
		<stop  offset="0.5941" style="stop-color:#009AD1"/>
		<stop  offset="0.7447" style="stop-color:#0078B3"/>
		<stop  offset="0.8482" style="stop-color:#005F9D"/>
		<stop  offset="0.9976" style="stop-color:#232322"/>
	</radialGradient>
	<ellipse class="st1" cx="384.7" cy="429" rx="1" ry="2.5"/>
	<g>
		<g>
			
				<radialGradient id="SVGID_2_" cx="353.0541" cy="420.5539" r="342.5727" gradientTransform="matrix(1 0 0 1 23 0)" gradientUnits="userSpaceOnUse">
				<stop  offset="0" style="stop-color:#FFFFFF"/>
				<stop  offset="9.873518e-02" style="stop-color:#C3DDF3"/>
				<stop  offset="0.1141" style="stop-color:#B2D8F2"/>
				<stop  offset="0.1477" style="stop-color:#8FCEF1"/>
				<stop  offset="0.1826" style="stop-color:#6CC5F0"/>
				<stop  offset="0.2188" style="stop-color:#4CBFEE"/>
				<stop  offset="0.2572" style="stop-color:#30BBEE"/>
				<stop  offset="0.3012" style="stop-color:#22BAED"/>
				<stop  offset="0.4203" style="stop-color:#22B7EB"/>
				<stop  offset="0.4814" style="stop-color:#19AFE4"/>
				<stop  offset="0.5941" style="stop-color:#009AD1"/>
				<stop  offset="0.7447" style="stop-color:#0078B3"/>
				<stop  offset="0.8482" style="stop-color:#005F9D"/>
				<stop  offset="0.9976" style="stop-color:#232322"/>
			</radialGradient>
			<path class="st2" d="M5.5,170.4h27.4v49.2h50.5v-49.2h27.4v124.4H83.4v-50H32.9v50H5.5V170.4z"/>
			
				<radialGradient id="SVGID_3_" cx="353.0541" cy="420.5539" r="342.5727" gradientTransform="matrix(1 0 0 1 23 0)" gradientUnits="userSpaceOnUse">
				<stop  offset="0" style="stop-color:#FFFFFF"/>
				<stop  offset="9.873518e-02" style="stop-color:#C3DDF3"/>
				<stop  offset="0.1141" style="stop-color:#B2D8F2"/>
				<stop  offset="0.1477" style="stop-color:#8FCEF1"/>
				<stop  offset="0.1826" style="stop-color:#6CC5F0"/>
				<stop  offset="0.2188" style="stop-color:#4CBFEE"/>
				<stop  offset="0.2572" style="stop-color:#30BBEE"/>
				<stop  offset="0.3012" style="stop-color:#22BAED"/>
				<stop  offset="0.4203" style="stop-color:#22B7EB"/>
				<stop  offset="0.4814" style="stop-color:#19AFE4"/>
				<stop  offset="0.5941" style="stop-color:#009AD1"/>
				<stop  offset="0.7447" style="stop-color:#0078B3"/>
				<stop  offset="0.8482" style="stop-color:#005F9D"/>
				<stop  offset="0.9976" style="stop-color:#232322"/>
			</radialGradient>
			<path class="st3" d="M200.5,169.5h25.2l53.3,125.3h-28.6l-11.4-27.9h-52.6l-11.4,27.9h-27.9L200.5,169.5z M229.3,242.7
				l-16.5-40.4l-16.5,40.4H229.3z"/>
			
				<radialGradient id="SVGID_4_" cx="353.0541" cy="420.5539" r="342.5727" gradientTransform="matrix(1 0 0 1 23 0)" gradientUnits="userSpaceOnUse">
				<stop  offset="0" style="stop-color:#FFFFFF"/>
				<stop  offset="9.873518e-02" style="stop-color:#C3DDF3"/>
				<stop  offset="0.1141" style="stop-color:#B2D8F2"/>
				<stop  offset="0.1477" style="stop-color:#8FCEF1"/>
				<stop  offset="0.1826" style="stop-color:#6CC5F0"/>
				<stop  offset="0.2188" style="stop-color:#4CBFEE"/>
				<stop  offset="0.2572" style="stop-color:#30BBEE"/>
				<stop  offset="0.3012" style="stop-color:#22BAED"/>
				<stop  offset="0.4203" style="stop-color:#22B7EB"/>
				<stop  offset="0.4814" style="stop-color:#19AFE4"/>
				<stop  offset="0.5941" style="stop-color:#009AD1"/>
				<stop  offset="0.7447" style="stop-color:#0078B3"/>
				<stop  offset="0.8482" style="stop-color:#005F9D"/>
				<stop  offset="0.9976" style="stop-color:#232322"/>
			</radialGradient>
			<path class="st4" d="M318,170.4h56.9c15.8,0,27.9,4.2,36.3,12.6c7.1,7.1,10.7,16.6,10.7,28.4v0.4c0,10.1-2.5,18.3-7.4,24.6
				c-4.9,6.3-11.4,11-19.3,14l30.4,44.4h-32L366.9,255h-0.4h-21.2v39.8H318V170.4z M373.2,230.8c6.8,0,11.9-1.6,15.6-4.8
				c3.6-3.2,5.4-7.5,5.4-12.8v-0.4c0-5.9-1.9-10.4-5.7-13.3c-3.8-3-9.1-4.4-15.8-4.4h-27.2v35.7H373.2z"/>
			
				<radialGradient id="SVGID_5_" cx="353.0541" cy="420.5539" r="342.5727" gradientTransform="matrix(1 0 0 1 23 0)" gradientUnits="userSpaceOnUse">
				<stop  offset="0" style="stop-color:#FFFFFF"/>
				<stop  offset="9.873518e-02" style="stop-color:#C3DDF3"/>
				<stop  offset="0.1141" style="stop-color:#B2D8F2"/>
				<stop  offset="0.1477" style="stop-color:#8FCEF1"/>
				<stop  offset="0.1826" style="stop-color:#6CC5F0"/>
				<stop  offset="0.2188" style="stop-color:#4CBFEE"/>
				<stop  offset="0.2572" style="stop-color:#30BBEE"/>
				<stop  offset="0.3012" style="stop-color:#22BAED"/>
				<stop  offset="0.4203" style="stop-color:#22B7EB"/>
				<stop  offset="0.4814" style="stop-color:#19AFE4"/>
				<stop  offset="0.5941" style="stop-color:#009AD1"/>
				<stop  offset="0.7447" style="stop-color:#0078B3"/>
				<stop  offset="0.8482" style="stop-color:#005F9D"/>
				<stop  offset="0.9976" style="stop-color:#232322"/>
			</radialGradient>
			<path class="st5" d="M483.2,170.4h48.5c9.7,0,18.6,1.6,26.8,4.7c8.1,3.1,15.1,7.5,21,13.1c5.9,5.6,10.4,12.1,13.6,19.6
				c3.2,7.5,4.8,15.7,4.8,24.4v0.4c0,8.8-1.6,16.9-4.8,24.5c-3.2,7.6-7.7,14.2-13.6,19.7c-5.9,5.6-12.9,10-21,13.2
				c-8.1,3.2-17,4.8-26.8,4.8h-48.5V170.4z M531.7,270.1c5.6,0,10.7-0.9,15.3-2.7c4.6-1.8,8.6-4.3,11.8-7.6
				c3.3-3.3,5.8-7.2,7.6-11.7c1.8-4.5,2.8-9.5,2.8-15.1v-0.4c0-5.4-0.9-10.5-2.8-15.1c-1.8-4.6-4.4-8.6-7.6-11.9
				c-3.3-3.3-7.2-5.9-11.8-7.7c-4.6-1.8-9.7-2.8-15.3-2.8h-21.2v75H531.7z"/>
			
				<radialGradient id="SVGID_6_" cx="353.0541" cy="420.5539" r="342.5727" gradientTransform="matrix(1 0 0 1 23 0)" gradientUnits="userSpaceOnUse">
				<stop  offset="0" style="stop-color:#FFFFFF"/>
				<stop  offset="9.873518e-02" style="stop-color:#C3DDF3"/>
				<stop  offset="0.1141" style="stop-color:#B2D8F2"/>
				<stop  offset="0.1477" style="stop-color:#8FCEF1"/>
				<stop  offset="0.1826" style="stop-color:#6CC5F0"/>
				<stop  offset="0.2188" style="stop-color:#4CBFEE"/>
				<stop  offset="0.2572" style="stop-color:#30BBEE"/>
				<stop  offset="0.3012" style="stop-color:#22BAED"/>
				<stop  offset="0.4203" style="stop-color:#22B7EB"/>
				<stop  offset="0.4814" style="stop-color:#19AFE4"/>
				<stop  offset="0.5941" style="stop-color:#009AD1"/>
				<stop  offset="0.7447" style="stop-color:#0078B3"/>
				<stop  offset="0.8482" style="stop-color:#005F9D"/>
				<stop  offset="0.9976" style="stop-color:#232322"/>
			</radialGradient>
			<path class="st6" d="M665.2,170.4h27.4v124.4h-27.4V170.4z"/>
			
				<radialGradient id="SVGID_7_" cx="353.0541" cy="420.5539" r="342.5727" gradientTransform="matrix(1 0 0 1 23 0)" gradientUnits="userSpaceOnUse">
				<stop  offset="0" style="stop-color:#FFFFFF"/>
				<stop  offset="9.873518e-02" style="stop-color:#C3DDF3"/>
				<stop  offset="0.1141" style="stop-color:#B2D8F2"/>
				<stop  offset="0.1477" style="stop-color:#8FCEF1"/>
				<stop  offset="0.1826" style="stop-color:#6CC5F0"/>
				<stop  offset="0.2188" style="stop-color:#4CBFEE"/>
				<stop  offset="0.2572" style="stop-color:#30BBEE"/>
				<stop  offset="0.3012" style="stop-color:#22BAED"/>
				<stop  offset="0.4203" style="stop-color:#22B7EB"/>
				<stop  offset="0.4814" style="stop-color:#19AFE4"/>
				<stop  offset="0.5941" style="stop-color:#009AD1"/>
				<stop  offset="0.7447" style="stop-color:#0078B3"/>
				<stop  offset="0.8482" style="stop-color:#005F9D"/>
				<stop  offset="0.9976" style="stop-color:#232322"/>
			</radialGradient>
			<path class="st7" d="M798.2,296.6c-9.5,0-18.8-1.6-27.9-4.9c-9.1-3.3-17.4-8.3-24.9-15l16.2-19.4c5.7,4.6,11.5,8.3,17.5,11
				c6,2.7,12.5,4.1,19.6,4.1c5.7,0,10.1-1,13.2-3.1c3.1-2.1,4.7-4.9,4.7-8.6v-0.4c0-1.8-0.3-3.3-1-4.7c-0.7-1.4-1.9-2.6-3.7-3.8
				c-1.8-1.2-4.4-2.4-7.7-3.6c-3.3-1.2-7.5-2.4-12.7-3.7c-6.3-1.5-12-3.3-17.1-5.2c-5.1-1.9-9.4-4.2-13-7c-3.6-2.8-6.3-6.3-8.3-10.4
				c-2-4.1-2.9-9.3-2.9-15.5v-0.4c0-5.7,1.1-10.8,3.2-15.4c2.1-4.6,5.1-8.5,8.9-11.8c3.8-3.3,8.4-5.9,13.7-7.6
				c5.3-1.8,11.2-2.7,17.6-2.7c9.1,0,17.5,1.4,25.2,4.1c7.6,2.7,14.7,6.6,21.1,11.7L825.6,205c-5.6-3.8-11-6.8-16.4-9
				c-5.3-2.2-10.7-3.3-16-3.3c-5.3,0-9.3,1-12,3.1c-2.7,2.1-4,4.7-4,7.7v0.4c0,2,0.4,3.8,1.2,5.2c0.8,1.5,2.2,2.8,4.2,4
				c2,1.2,4.8,2.3,8.3,3.4c3.5,1.1,7.9,2.3,13.3,3.7c6.3,1.7,11.9,3.5,16.8,5.6c4.9,2.1,9.1,4.6,12.5,7.5c3.4,2.9,5.9,6.3,7.7,10.2
				c1.7,3.9,2.6,8.6,2.6,14v0.4c0,6.2-1.1,11.6-3.4,16.4c-2.2,4.8-5.4,8.8-9.4,12.1c-4,3.3-8.8,5.8-14.3,7.5
				C811.1,295.7,805,296.6,798.2,296.6z"/>
			
				<radialGradient id="SVGID_8_" cx="353.0541" cy="420.5539" r="342.5727" gradientTransform="matrix(1 0 0 1 23 0)" gradientUnits="userSpaceOnUse">
				<stop  offset="0" style="stop-color:#FFFFFF"/>
				<stop  offset="9.873518e-02" style="stop-color:#C3DDF3"/>
				<stop  offset="0.1141" style="stop-color:#B2D8F2"/>
				<stop  offset="0.1477" style="stop-color:#8FCEF1"/>
				<stop  offset="0.1826" style="stop-color:#6CC5F0"/>
				<stop  offset="0.2188" style="stop-color:#4CBFEE"/>
				<stop  offset="0.2572" style="stop-color:#30BBEE"/>
				<stop  offset="0.3012" style="stop-color:#22BAED"/>
				<stop  offset="0.4203" style="stop-color:#22B7EB"/>
				<stop  offset="0.4814" style="stop-color:#19AFE4"/>
				<stop  offset="0.5941" style="stop-color:#009AD1"/>
				<stop  offset="0.7447" style="stop-color:#0078B3"/>
				<stop  offset="0.8482" style="stop-color:#005F9D"/>
				<stop  offset="0.9976" style="stop-color:#232322"/>
			</radialGradient>
			<path class="st8" d="M65.4,488.2c-9.7,0-18.6-1.6-26.6-4.8S24,475.7,18.2,470c-5.7-5.7-10.2-12.4-13.4-20.3S0,433.4,0,424.2v-0.4
				c0-8.9,1.6-17.2,4.9-25c3.3-7.8,7.8-14.6,13.6-20.4c5.8-5.9,12.7-10.5,20.6-13.9c7.9-3.4,16.7-5.1,26.1-5.1
				c5.6,0,10.6,0.4,15.2,1.2c4.6,0.8,8.8,1.9,12.7,3.3c3.9,1.4,7.6,3.2,11,5.3c3.4,2.1,6.8,4.6,10,7.3l-17.2,20.8
				c-2.4-2-4.7-3.8-7.1-5.3c-2.4-1.5-4.8-2.8-7.4-3.9c-2.5-1.1-5.3-1.9-8.3-2.5c-3-0.6-6.2-0.9-9.8-0.9c-5,0-9.6,1-14,3.1
				c-4.3,2.1-8.1,4.9-11.4,8.4c-3.3,3.5-5.8,7.6-7.6,12.3c-1.8,4.7-2.8,9.7-2.8,15.1v0.4c0,5.7,0.9,11,2.8,15.8
				c1.8,4.8,4.4,9,7.8,12.6c3.4,3.6,7.3,6.3,11.9,8.3c4.6,2,9.6,2.9,15.2,2.9c10.2,0,18.8-2.5,25.8-7.5V438H64.5v-23.6h54v54
				c-6.4,5.5-14,10.1-22.8,14C86.9,486.3,76.8,488.2,65.4,488.2z"/>
			
				<radialGradient id="SVGID_9_" cx="353.0541" cy="420.5539" r="342.5727" gradientTransform="matrix(1 0 0 1 23 0)" gradientUnits="userSpaceOnUse">
				<stop  offset="0" style="stop-color:#FFFFFF"/>
				<stop  offset="9.873518e-02" style="stop-color:#C3DDF3"/>
				<stop  offset="0.1141" style="stop-color:#B2D8F2"/>
				<stop  offset="0.1477" style="stop-color:#8FCEF1"/>
				<stop  offset="0.1826" style="stop-color:#6CC5F0"/>
				<stop  offset="0.2188" style="stop-color:#4CBFEE"/>
				<stop  offset="0.2572" style="stop-color:#30BBEE"/>
				<stop  offset="0.3012" style="stop-color:#22BAED"/>
				<stop  offset="0.4203" style="stop-color:#22B7EB"/>
				<stop  offset="0.4814" style="stop-color:#19AFE4"/>
				<stop  offset="0.5941" style="stop-color:#009AD1"/>
				<stop  offset="0.7447" style="stop-color:#0078B3"/>
				<stop  offset="0.8482" style="stop-color:#005F9D"/>
				<stop  offset="0.9976" style="stop-color:#232322"/>
			</radialGradient>
			<path class="st9" d="M167.1,361.6H224c15.8,0,27.9,4.2,36.3,12.6c7.1,7.1,10.7,16.6,10.7,28.4v0.4c0,10.1-2.5,18.3-7.4,24.6
				c-4.9,6.3-11.4,11-19.3,14l30.4,44.4h-32L216,446.2h-0.4h-21.2V486h-27.4V361.6z M222.2,422c6.8,0,11.9-1.6,15.6-4.8
				c3.6-3.2,5.4-7.5,5.4-12.8v-0.4c0-5.9-1.9-10.4-5.7-13.3c-3.8-3-9.1-4.4-15.8-4.4h-27.2V422H222.2z"/>
			
				<radialGradient id="SVGID_10_" cx="353.0541" cy="420.5539" r="342.5727" gradientTransform="matrix(1 0 0 1 23 0)" gradientUnits="userSpaceOnUse">
				<stop  offset="0" style="stop-color:#FFFFFF"/>
				<stop  offset="9.873518e-02" style="stop-color:#C3DDF3"/>
				<stop  offset="0.1141" style="stop-color:#B2D8F2"/>
				<stop  offset="0.1477" style="stop-color:#8FCEF1"/>
				<stop  offset="0.1826" style="stop-color:#6CC5F0"/>
				<stop  offset="0.2188" style="stop-color:#4CBFEE"/>
				<stop  offset="0.2572" style="stop-color:#30BBEE"/>
				<stop  offset="0.3012" style="stop-color:#22BAED"/>
				<stop  offset="0.4203" style="stop-color:#22B7EB"/>
				<stop  offset="0.4814" style="stop-color:#19AFE4"/>
				<stop  offset="0.5941" style="stop-color:#009AD1"/>
				<stop  offset="0.7447" style="stop-color:#0078B3"/>
				<stop  offset="0.8482" style="stop-color:#005F9D"/>
				<stop  offset="0.9976" style="stop-color:#232322"/>
			</radialGradient>
			<path class="st10" d="M545.8,488c-16.7,0-29.9-4.6-39.5-13.9c-9.6-9.2-14.4-23-14.4-41.4v-71.1h27.4V432c0,10.2,2.4,17.9,7.1,23
				c4.7,5.2,11.3,7.7,19.7,7.7c8.4,0,15-2.5,19.7-7.5c4.7-5,7.1-12.4,7.1-22.4v-71.3h27.4v70.2c0,9.5-1.3,17.7-3.8,24.7
				c-2.5,7-6.2,12.8-10.9,17.5c-4.7,4.7-10.5,8.2-17.2,10.5C561.6,486.8,554.1,488,545.8,488z"/>
			
				<radialGradient id="SVGID_11_" cx="353.0541" cy="420.5539" r="342.5727" gradientTransform="matrix(1 0 0 1 23 0)" gradientUnits="userSpaceOnUse">
				<stop  offset="0" style="stop-color:#FFFFFF"/>
				<stop  offset="9.873518e-02" style="stop-color:#C3DDF3"/>
				<stop  offset="0.1141" style="stop-color:#B2D8F2"/>
				<stop  offset="0.1477" style="stop-color:#8FCEF1"/>
				<stop  offset="0.1826" style="stop-color:#6CC5F0"/>
				<stop  offset="0.2188" style="stop-color:#4CBFEE"/>
				<stop  offset="0.2572" style="stop-color:#30BBEE"/>
				<stop  offset="0.3012" style="stop-color:#22BAED"/>
				<stop  offset="0.4203" style="stop-color:#22B7EB"/>
				<stop  offset="0.4814" style="stop-color:#19AFE4"/>
				<stop  offset="0.5941" style="stop-color:#009AD1"/>
				<stop  offset="0.7447" style="stop-color:#0078B3"/>
				<stop  offset="0.8482" style="stop-color:#005F9D"/>
				<stop  offset="0.9976" style="stop-color:#232322"/>
			</radialGradient>
			<path class="st11" d="M657.6,361.6h50.8c7.5,0,14.1,1,20,3.1c5.9,2.1,10.8,5,14.9,8.8c4.1,3.8,7.2,8.3,9.4,13.6
				c2.2,5.3,3.3,11.1,3.3,17.5v0.4c0,7.2-1.3,13.6-3.9,19c-2.6,5.5-6.2,10-10.8,13.7c-4.6,3.7-9.9,6.4-16,8.3
				c-6.1,1.8-12.7,2.8-19.6,2.8H685V486h-27.4V361.6z M706.7,424.4c6.9,0,12.2-1.8,16-5.4c3.8-3.6,5.7-8.1,5.7-13.4v-0.4
				c0-6.2-2-10.8-6-14c-4-3.2-9.4-4.8-16.3-4.8H685v38H706.7z"/>
			
				<radialGradient id="SVGID_12_" cx="353.0541" cy="420.5539" r="342.5727" gradientTransform="matrix(1 0 0 1 23 0)" gradientUnits="userSpaceOnUse">
				<stop  offset="0" style="stop-color:#FFFFFF"/>
				<stop  offset="9.873518e-02" style="stop-color:#C3DDF3"/>
				<stop  offset="0.1141" style="stop-color:#B2D8F2"/>
				<stop  offset="0.1477" style="stop-color:#8FCEF1"/>
				<stop  offset="0.1826" style="stop-color:#6CC5F0"/>
				<stop  offset="0.2188" style="stop-color:#4CBFEE"/>
				<stop  offset="0.2572" style="stop-color:#30BBEE"/>
				<stop  offset="0.3012" style="stop-color:#22BAED"/>
				<stop  offset="0.4203" style="stop-color:#22B7EB"/>
				<stop  offset="0.4814" style="stop-color:#19AFE4"/>
				<stop  offset="0.5941" style="stop-color:#009AD1"/>
				<stop  offset="0.7447" style="stop-color:#0078B3"/>
				<stop  offset="0.8482" style="stop-color:#005F9D"/>
				<stop  offset="0.9976" style="stop-color:#232322"/>
			</radialGradient>
			<circle class="st12" cx="374.6" cy="422.4" r="68.9"/>
		</g>
	</g>
	<line class="st13" x1="574.4" y1="115.8" x2="601.3" y2="115.8"/>
</g>
</svg>
