<?xml version="1.0" ?><svg enable-background="new 0 0 512 512" id="Layer_1" version="1.1" viewBox="0 0 512 512" xml:space="preserve" xmlns="http://www.w3.org/2000/svg" xmlns:xlink="http://www.w3.org/1999/xlink"><g><g><linearGradient gradientUnits="userSpaceOnUse" id="SVGID_1_" x1="0.0000038" x2="512" y1="256" y2="256"><stop offset="0" style="stop-color:#F35CB5"/><stop offset="1" style="stop-color:#EC008C"/></linearGradient><circle cx="256" cy="256" fill="url(#SVGID_1_)" r="256"/><linearGradient gradientUnits="userSpaceOnUse" id="SVGID_2_" x1="42.6666679" x2="469.3333435" y1="256.0005188" y2="256.0005188"><stop offset="0" style="stop-color:#EC008C"/><stop offset="1" style="stop-color:#F35CB5"/></linearGradient><path d="M256,469.3338623c-117.6309357,0-213.3333282-95.7018738-213.3333282-213.3333435    c0-117.6309204,95.7023926-213.333313,213.3333282-213.333313c117.636261,0,213.3333435,95.7024002,213.3333435,213.333313    C469.3333435,373.6319885,373.636261,469.3338623,256,469.3338623z" fill="url(#SVGID_2_)"/></g><g><rect height="121.9754715" opacity="0.3" width="9.7957335" x="259.1023865" y="144"/><path d="M286.7866516,167.6437378l-2.0325317,9.5850677    c45.6698914,9.6810608,78.8170776,50.6442566,78.8170776,97.4042511c0,54.9061584-44.6672058,99.5717468-99.5706787,99.5717468    c-54.9039917,0-99.5717163-44.6655884-99.5717163-99.5717468c0-46.7647858,33.1498718-87.7279968,78.8218689-97.4042511    l-2.0325317-9.5850677c-50.1706696,10.6330566-86.5850677,55.6277313-86.5850677,106.9893188    C154.6330719,334.9397278,203.6938629,384,264.0005188,384c60.305603,0,109.3669434-49.0602722,109.3669434-109.3669434    C373.3674622,223.2767944,336.9552002,178.2810669,286.7866516,167.6437378z" opacity="0.3"/></g><g><rect fill="#FFFFFF" height="121.9754715" width="9.7957335" x="251.1024017" y="136"/><path d="M278.7866516,159.6437378l-2.0325317,9.5850677    c45.6698914,9.6810608,78.8170776,50.6442566,78.8170776,97.4042511c0,54.9061584-44.6672058,99.5717468-99.5706787,99.5717468    c-54.9039917,0-99.5717163-44.6655884-99.5717163-99.5717468c0-46.7647858,33.1498718-87.7279968,78.8218689-97.4042511    l-2.0325317-9.5850677c-50.1706696,10.6330566-86.5850677,55.6277313-86.5850677,106.9893188    C146.6330719,326.9397278,195.6938629,376,256.0005188,376c60.305603,0,109.3669434-49.0602722,109.3669434-109.3669434    C365.3674622,215.2767944,328.9552002,170.2810669,278.7866516,159.6437378z" fill="#FFFFFF"/></g></g></svg>