<?xml version="1.0" ?><svg enable-background="new 0 0 64 64" height="64px" id="Layer_1" version="1.1" viewBox="0 0 64 64" width="64px" xml:space="preserve" xmlns="http://www.w3.org/2000/svg" xmlns:xlink="http://www.w3.org/1999/xlink"><circle cx="32" cy="32" fill="#F5CF87" r="32"/><g opacity="0.2"><path d="M30,58c-1.657,0-3-1.343-3-3V22h6c0,22.148,13.439,25.029,13.575,25.056   c1.626,0.317,2.687,1.893,2.369,3.52s-1.895,2.689-3.52,2.369c-0.459-0.09-7.224-1.527-12.425-8.783V55C33,56.657,31.657,58,30,58z   " fill="#231F20"/></g><path d="M46,48c0,0-16-3.125-16-28  v33" fill="none" stroke="#4F5D73" stroke-linecap="round" stroke-miterlimit="10" stroke-width="6"/><g opacity="0.2"><path d="M21.439,24c-1.471,0-1.883-1.088-0.914-2.418l7.713-10.585c0.969-1.33,2.555-1.33,3.524,0l7.713,10.585   C40.444,22.912,40.033,24,38.561,24H21.439z" fill="#231F20"/></g><path d="M21.439,22c-1.471,0-1.883-1.088-0.914-2.418l7.713-10.585c0.969-1.33,2.555-1.33,3.524,0l7.713,10.585  C40.444,20.912,40.033,22,38.561,22H21.439z" fill="#4F5D73"/></svg>