<svg id="Icons" xmlns="http://www.w3.org/2000/svg" viewBox="0 0 48 48"><defs><style>.cls-1{fill:#45413c;opacity:0.15;}.cls-2{fill:#f0d5a8;}.cls-3{fill:#debb7e;}.cls-4{fill:none;}.cls-4,.cls-5,.cls-8,.cls-9{stroke:#4f4b45;stroke-linejoin:round;}.cls-5{fill:#fff;}.cls-6,.cls-8{fill:#fff5e3;}.cls-7,.cls-9{fill:#f7e5c6;}</style></defs><title>724-package</title><g id="_Group_" data-name="&lt;Group&gt;"><ellipse id="_Ellipse_" data-name="&lt;Ellipse&gt;" class="cls-1" cx="24" cy="43.01" rx="15.25" ry="1.99"/><path id="_Path_" data-name="&lt;Path&gt;" class="cls-2" d="M5.78,36l16.74,6.7A4,4,0,0,0,24,43V20.75L4.63,13a2.68,2.68,0,0,0-.52,1.59v19A2.65,2.65,0,0,0,5.78,36Z"/><path id="_Path_2" data-name="&lt;Path&gt;" class="cls-3" d="M5.78,31a2.64,2.64,0,0,1-1.67-2.46v5A2.65,2.65,0,0,0,5.78,36l16.74,6.7A4,4,0,0,0,24,43V38a4,4,0,0,1-1.48-.29Z"/><path id="_Path_3" data-name="&lt;Path&gt;" class="cls-4" d="M5.78,36l16.74,6.7A4,4,0,0,0,24,43V20.75L4.63,13a2.68,2.68,0,0,0-.52,1.59v19A2.65,2.65,0,0,0,5.78,36Z"/><path id="_Path_4" data-name="&lt;Path&gt;" class="cls-2" d="M42.22,36a2.65,2.65,0,0,0,1.67-2.46V14.59A2.68,2.68,0,0,0,43.37,13L24,20.75V43a4,4,0,0,0,1.48-.29Z"/><path id="_Path_5" data-name="&lt;Path&gt;" class="cls-3" d="M42.22,31.22l-16.74,6.7A4,4,0,0,1,24,38.2V43a4,4,0,0,0,1.48-.29L42.22,36a2.65,2.65,0,0,0,1.67-2.46V28.76A2.65,2.65,0,0,1,42.22,31.22Z"/><path id="_Path_6" data-name="&lt;Path&gt;" class="cls-4" d="M42.22,36a2.65,2.65,0,0,0,1.67-2.46V14.59A2.68,2.68,0,0,0,43.37,13L24,20.75V43a4,4,0,0,0,1.48-.29Z"/><path id="_Path_7" data-name="&lt;Path&gt;" class="cls-2" d="M42.22,12.12,25.48,5.43a4,4,0,0,0-3,0L5.78,12.12A2.73,2.73,0,0,0,4.63,13L24,20.75,43.37,13A2.73,2.73,0,0,0,42.22,12.12Z"/><path id="_Path_8" data-name="&lt;Path&gt;" class="cls-3" d="M42.22,12.12l-.56-.22-2-.79-9.14,3.66a17.65,17.65,0,0,1-13.1,0L8.31,11.11l-2.53,1A2.73,2.73,0,0,0,4.63,13L24,20.75,43.37,13A2.73,2.73,0,0,0,42.22,12.12Z"/><path id="_Path_9" data-name="&lt;Path&gt;" class="cls-4" d="M42.22,12.12,25.48,5.43a4,4,0,0,0-3,0L5.78,12.12A2.73,2.73,0,0,0,4.63,13L24,20.75,43.37,13A2.73,2.73,0,0,0,42.22,12.12Z"/><polygon id="_Path_10" data-name="&lt;Path&gt;" class="cls-5" points="33.41 27.49 27.68 29.78 27.68 23.29 33.41 21 33.41 27.49"/><polygon id="_Path_11" data-name="&lt;Path&gt;" class="cls-6" points="17.2 18.03 37.09 10.07 30.96 7.62 11.07 15.58 17.2 18.03"/><path id="_Path_12" data-name="&lt;Path&gt;" class="cls-7" d="M17.45,14.77l-2.18-.87-4.2,1.68L17.2,18,22.39,16A17.8,17.8,0,0,1,17.45,14.77Z"/><polygon id="_Path_13" data-name="&lt;Path&gt;" class="cls-4" points="17.2 18.03 37.09 10.07 30.96 7.62 11.07 15.58 17.2 18.03"/><polygon id="_Path_14" data-name="&lt;Path&gt;" class="cls-8" points="11.07 15.58 11.07 20.75 17.23 23.21 17.2 18.03 11.07 15.58"/><polygon id="_Path_15" data-name="&lt;Path&gt;" class="cls-9" points="11.07 34.34 11.07 38.15 17.23 40.62 17.2 36.8 11.07 34.34"/></g></svg>