<?xml version="1.0" ?><svg data-name="Layer 1" id="Layer_1" viewBox="0 0 272 272" xmlns="http://www.w3.org/2000/svg"><defs><style>.cls-1{fill:#ffd54f;}.cls-2{fill:#4fc2f8;}.cls-3{fill:#03a9f5;}</style></defs><title/><path class="cls-1" d="M104,8h0A39.83,39.83,0,0,0,77.52,18a8,8,0,0,0,5.35,14h0a8,8,0,0,0,5.28-2A23.9,23.9,0,0,1,105,24c13,.51,23,11.56,23,24.54V152h16V48A40,40,0,0,0,104,8Z"/><path class="cls-1" d="M184,8h0a39.83,39.83,0,0,0-26.48,10,8,8,0,0,0,5.35,14h0a8,8,0,0,0,5.28-2A23.9,23.9,0,0,1,185,24c13,.51,23,11.56,23,24.54V144h16V48A40,40,0,0,0,184,8Z"/><rect class="cls-1" height="16" width="64" x="144" y="56"/><rect class="cls-1" height="16" width="64" x="144" y="104"/><path class="cls-2" d="M216,139.25c-34.67-35.5-69.33,35.5-104,0s-69.33,35.5-104,0v34c34.67,35.5,69.33-35.5,104,0s69.33-35.5,104,0c16,16.39,32,10.08,48,2v-34C248,149.33,232,155.63,216,139.25Z"/><path class="cls-3" d="M216,173.25c-34.67-35.5-69.33,35.5-104,0s-69.33,35.5-104,0v34c34.67,35.5,69.33-35.5,104,0s69.33-35.5,104,0c16,16.39,32,10.08,48,2v-34C248,183.33,232,189.63,216,173.25Z"/><path class="cls-3" d="M264,264V243.28c-16,8-32,14.35-48-2-34.67-35.5-69.33,35.5-104,0s-69.33,35.5-104,0V264Z"/><path class="cls-2" d="M216,207.25c-34.67-35.5-69.33,35.5-104,0s-69.33,35.5-104,0v34c34.67,35.5,69.33-35.5,104,0s69.33-35.5,104,0c16,16.39,32,10.08,48,2v-34C248,217.33,232,223.63,216,207.25Z"/></svg>