<svg xmlns="http://www.w3.org/2000/svg" width="31.998" height="23"><path fill="#39B29D" d="M25.913 8.143c-.439-4.563-4.238-8.143-8.914-8.143-3.62 0-6.718 2.148-8.146 5.23-.431-.137-.878-.23-1.353-.23-2.485 0-4.5 2.016-4.5 4.5 0 .494.099.961.246 1.404-1.934 1.127-3.246 3.196-3.246 5.594 0 3.59 2.91 6.5 6.5 6.5v.002h18v-.002c4.143 0 7.498-3.357 7.498-7.5-.001-3.656-2.62-6.693-6.085-7.355zm-5.146 6.48l-3.781 3.727c-.763.765-1.233.74-1.974 0l-3.781-3.727c-.542-.885-.099-1.609.987-1.609h1.781v-4.012c0-.553.448-1.002 1-1.002h2c.553 0 1 .449 1 1.002v4.012h1.779c1.086 0 1.532.724.989 1.609z"/></svg>