<svg xmlns="http://www.w3.org/2000/svg" width="31.998" height="23"><path fill="#39B29D" d="M25.913 8.143c-.438-4.563-4.237-8.143-8.914-8.143-3.619 0-6.718 2.148-8.146 5.23-.43-.137-.878-.23-1.353-.23-2.485 0-4.5 2.016-4.5 4.5 0 .494.099.961.246 1.404-1.933 1.127-3.246 3.196-3.246 5.594 0 3.59 2.91 6.5 6.5 6.5v.002h17.999v-.002c4.144 0 7.499-3.357 7.499-7.5 0-3.656-2.62-6.693-6.085-7.355zm-6.134 5.757h-1.78v4.012c0 .553-.446 1.002-1 1.002h-2c-.552 0-1-.449-1-1.002v-4.012h-1.781c-1.086 0-1.529-.725-.987-1.609l3.781-3.727c.741-.74 1.21-.765 1.974 0l3.781 3.727c.544.885.098 1.609-.988 1.609z"/></svg>