<?xml version="1.0" ?><svg viewBox="0 0 64 64" xmlns="http://www.w3.org/2000/svg"><defs><style>.cls-1{fill:#fe8657;}.cls-2{fill:#767689;}.cls-3{fill:#f9f9f9;}.cls-4{fill:#e6e5e1;}.cls-5{fill:#5f5f70;}.cls-6{fill:#16244d;}</style></defs><g id="Satellite"><path class="cls-1" d="M21.06,40.17l-7.2,4.31,5.66,5.66,4.31-7.2Z" id="rect4520-5"/><path class="cls-2" d="M44.93,19.07a6.87,6.87,0,0,0-9.76,0L22.25,32A6.9,6.9,0,0,0,32,41.75L44.93,28.83A6.87,6.87,0,0,0,44.93,19.07Z" id="rect4503-0"/><path class="cls-1" d="M40.68,23.32a2.59,2.59,0,0,0-3.66,0l-6.39,6.39a2.59,2.59,0,0,0,3.66,3.66L40.68,27a2.59,2.59,0,0,0,0-3.66Z" id="rect4506-5"/><path class="cls-1" d="M44.49,34.2,42,31.73l-7.12,7.11,2.47,2.47Z" id="rect4509-1"/><path class="cls-3" d="M60,41.39,48.65,30,33.22,45.47,44.57,56.82Z" id="path4512-1"/><path class="cls-1" d="M29.8,19.51,32.27,22l-7.11,7.12-2.47-2.47Z" id="path4516-0"/><path class="cls-3" d="M22.61,4,34,15.35,18.53,30.78,7.18,19.43Z" id="path4518-8"/><path class="cls-4" d="M60,41.39l-3.61-3.62L41,53.2l3.61,3.62Z" id="path6548"/><path class="cls-4" d="M30.35,11.73,34,15.35,18.53,30.78l-3.61-3.62Z" id="path6550"/><path class="cls-5" d="M40.05,17a6.91,6.91,0,0,0-4.88,2l-1,1a8.29,8.29,0,0,1,10,9.56l.83-.84A6.91,6.91,0,0,0,40.05,17Z" id="path6552"/><path class="cls-6" d="M36.32,22.61,29.93,29A3.59,3.59,0,0,0,35,34.07l6.39-6.39a3.59,3.59,0,1,0-5.07-5.07ZM40,26.27l-6.39,6.39a1.58,1.58,0,0,1-2.24-2.24L37.73,24a1.59,1.59,0,0,1,1.12-.47A1.59,1.59,0,0,1,40,26.27Z"/><path class="cls-6" d="M49.36,29.33a1,1,0,0,0-1.42,0l-3.45,3.45-1.05-1.05,2.2-2.2A7.9,7.9,0,0,0,34.47,18.36l-2.2,2.2-1.05-1,3.45-3.45a1,1,0,0,0,0-1.42L23.32,3.29A1,1,0,0,0,22.61,3a1.05,1.05,0,0,0-.71.29L6.48,18.72a1,1,0,0,0,0,1.41L17.82,31.48a1,1,0,0,0,.71.3,1,1,0,0,0,.71-.3L22.69,28l1,1.06-2.2,2.2a7.84,7.84,0,0,0-1.76,8.48l-6.43,3.85a1,1,0,0,0-.48.73,1,1,0,0,0,.28.83l5.67,5.67a1,1,0,0,0,1.56-.2l3.85-6.43a7.86,7.86,0,0,0,8.49-1.76l2.19-2.2L36,41.31l-3.45,3.45a1,1,0,0,0,0,1.41L43.87,57.52a1,1,0,0,0,.7.3,1,1,0,0,0,.71-.3L60.71,42.1a1,1,0,0,0,0-1.42Zm-30.83,0L8.6,19.43l14-14,9.94,9.94L29.1,18.8ZM29.8,20.92l1.05,1-5.69,5.7L24.1,26.62ZM19.33,48.53l-3.86-3.85,5.28-3.16a7.11,7.11,0,0,0,1.73,1.73ZM31.3,41A5.89,5.89,0,0,1,23,41a5.61,5.61,0,0,1-1-1.39h0a5.77,5.77,0,0,1-.7-2.78A5.87,5.87,0,0,1,23,32.7L35.88,19.77a5.9,5.9,0,0,1,8.35,8.35Zm5-2.2L42,33.15l1,1.05-5.7,5.7ZM44.57,55.4l-9.93-9.93c-.2.19,10.06-10.06,14-14l9.94,9.94Z"/><path class="cls-6" d="M15.63,51.56a1,1,0,0,0,.7-.29,1,1,0,0,0,0-1.42l-2.18-2.18a1,1,0,0,0-1.42,1.41l2.19,2.19A1,1,0,0,0,15.63,51.56Z"/><path class="cls-6" d="M8.57,47.31a1,1,0,0,0,0,1.42l6.7,6.7a1,1,0,0,0,1.42,0,1,1,0,0,0,0-1.41L10,47.31A1,1,0,0,0,8.57,47.31Z"/><path class="cls-6" d="M7.79,51.75l4.46,4.46a1,1,0,0,0,1.41,0,1,1,0,0,0,0-1.41L9.2,50.34a1,1,0,0,0-1.41,1.41Z"/><path class="cls-6" d="M3.29,51.07l9.64,9.64a1,1,0,0,0,.71.29,1,1,0,0,0,.71-.29,1,1,0,0,0,0-1.42L4.71,49.65a1,1,0,0,0-1.42,1.42Z"/></g></svg>