<?xml version="1.0" ?><svg enable-background="new 0 0 512 512" id="Layer_1" version="1.1" viewBox="0 0 512 512" xml:space="preserve" xmlns="http://www.w3.org/2000/svg" xmlns:xlink="http://www.w3.org/1999/xlink"><g><g><linearGradient gradientUnits="userSpaceOnUse" id="SVGID_1_" x1="0.0000038" x2="512" y1="256" y2="256"><stop offset="0" style="stop-color:#F67950"/><stop offset="1" style="stop-color:#F15A29"/></linearGradient><circle cx="256" cy="256" fill="url(#SVGID_1_)" r="256"/><linearGradient gradientUnits="userSpaceOnUse" id="SVGID_2_" x1="42.6666679" x2="469.3333435" y1="256.0005188" y2="256.0005188"><stop offset="0" style="stop-color:#F15A29"/><stop offset="1" style="stop-color:#F67950"/></linearGradient><path d="M256,469.3338623c-117.6314697,0-213.3333282-95.7023926-213.3333282-213.3333435    c0-117.6314545,95.7018585-213.333313,213.3333282-213.333313c117.6357422,0,213.3333435,95.7018661,213.3333435,213.333313    C469.3333435,373.6314697,373.6357422,469.3338623,256,469.3338623z" fill="url(#SVGID_2_)"/></g><g><path d="M342.8325195,144h-14.0239868v67.3770599h-164.834137V144H144v240h240V182.9477386L342.8325195,144z     M203.5349274,365.7520142h-34.5605316v-10h34.5605316V365.7520142z M264,331.8250732c-24.8527985,0-45-20.1472168-45-45    c0-24.8528137,20.1472015-45,45-45c24.8529053,0,45,20.1471863,45,45C309,311.6778564,288.8529053,331.8250732,264,331.8250732z" opacity="0.3"/><polygon opacity="0.3" points="318.8085327,144 299.311554,144 299.311554,182.8037262 289.311554,182.8037262 289.311554,144     173.9743958,144 173.9743958,201.3770599 318.8085327,201.3770599   "/></g><g><path d="M334.8325195,136h-14.0239868v67.3770599h-164.834137V136H136v240h240V174.9477386L334.8325195,136z     M195.5349274,357.7520142h-34.5605316v-10h34.5605316V357.7520142z M256,323.8250732c-24.8527985,0-45-20.1472168-45-45    c0-24.8528137,20.1472015-45,45-45c24.8529053,0,45,20.1471863,45,45C301,303.6778564,280.8529053,323.8250732,256,323.8250732z" fill="#FFFFFF"/><polygon fill="#FFFFFF" points="310.8085327,136 291.311554,136 291.311554,174.8037262 281.311554,174.8037262 281.311554,136     165.9743958,136 165.9743958,193.3770599 310.8085327,193.3770599   "/></g></g></svg>