<?xml version="1.0" ?><!DOCTYPE svg  PUBLIC '-//W3C//DTD SVG 1.1//EN'  'http://www.w3.org/Graphics/SVG/1.1/DTD/svg11.dtd'><svg enable-background="new 0 0 91 91" height="91px" id="Layer_1" version="1.1" viewBox="0 0 91 91" width="91px" xml:space="preserve" xmlns="http://www.w3.org/2000/svg" xmlns:xlink="http://www.w3.org/1999/xlink"><g><path d="M62.93,60.806c-7.346,0-14.25-2.859-19.439-8.053c-10.713-10.717-10.713-28.156-0.004-38.877   C48.68,8.685,55.584,5.825,62.93,5.825s14.248,2.859,19.443,8.049c10.713,10.723,10.713,28.162,0,38.879   C77.18,57.946,70.275,60.806,62.93,60.806z M62.93,12.505c-5.563,0-10.787,2.164-14.717,6.094c-8.109,8.115-8.109,21.318,0,29.432   c3.93,3.932,9.154,6.096,14.717,6.096c5.561,0,10.787-2.164,14.719-6.098c8.109-8.111,8.109-21.314,0-29.43   C73.717,14.669,68.49,12.505,62.93,12.505z" fill="#647F94"/><path d="M71.971,24.276c-2.414-2.416-5.623-3.746-9.039-3.746c-3.412,0-6.623,1.33-9.043,3.744   c-4.982,4.988-4.982,13.1,0.002,18.088c2.418,2.412,5.627,3.742,9.041,3.742c3.416,0,6.629-1.332,9.047-3.75   C76.959,37.37,76.955,29.259,71.971,24.276z" fill="#6EC4A7"/><path d="M12.859,87.556L12.859,87.556c-1.107,0-2.17-0.439-2.953-1.223l-7.268-7.27   c-1.631-1.631-1.631-4.275,0-5.904c1.631-1.631,4.273-1.631,5.904,0l4.316,4.318l29.264-29.262   c1.627-1.627,4.273-1.629,5.904,0.002c1.631,1.629,1.631,4.275,0,5.906L15.811,86.335C15.027,87.118,13.967,87.556,12.859,87.556z" fill="#647F94"/><path d="M21.342,78.243c-0.854,0-1.709-0.326-2.359-0.979L5.285,63.577c-1.305-1.305-1.305-3.42-0.002-4.725   c1.305-1.305,3.42-1.305,4.723-0.002l13.697,13.691c1.305,1.303,1.305,3.418,0.002,4.723   C23.053,77.917,22.199,78.243,21.342,78.243z" fill="#647F94"/><path d="M29.359,70.228c-0.854,0-1.707-0.326-2.359-0.979l-7.279-7.268c-1.305-1.305-1.307-3.418-0.002-4.725   c1.305-1.303,3.42-1.307,4.725-0.002l7.277,7.27c1.305,1.303,1.307,3.418,0.004,4.725C31.072,69.901,30.217,70.228,29.359,70.228z" fill="#647F94"/></g></svg>