<?xml version="1.0" encoding="utf-8"?>
<!-- Generator: Adobe Illustrator 19.1.1, SVG Export Plug-In . SVG Version: 6.00 Build 0)  -->
<svg version="1.1" id="Layer_1" xmlns="http://www.w3.org/2000/svg" xmlns:xlink="http://www.w3.org/1999/xlink" x="0px" y="0px"
	 viewBox="0 0 1200 1200" enable-background="new 0 0 1200 1200" xml:space="preserve">
<g>
	<path fill="#2E4C59" d="M668.487,183.751H600h-68.487c-16.586,0-31.627-6.748-42.521-17.642s-17.642-25.935-17.642-42.521v-6.712
		v-6.712c0-16.586,6.748-31.627,17.642-42.521S514.927,50,531.513,50H600h68.487c16.586,0,31.627,6.748,42.521,17.642
		c10.894,10.894,17.642,25.935,17.642,42.521v6.712v6.712c0,16.586-6.748,31.627-17.642,42.521
		C700.113,177.003,685.073,183.751,668.487,183.751z M531.513,80.779c-8.101,0-15.447,3.296-20.768,8.617
		c-5.321,5.321-8.617,12.667-8.617,20.768v6.712v6.712c0,8.101,3.296,15.447,8.617,20.768c5.321,5.321,12.667,8.617,20.768,8.617
		H600h68.487c8.101,0,15.447-3.296,20.768-8.617c5.321-5.321,8.617-12.667,8.617-20.768v-6.712v-6.712
		c0-8.101-3.296-15.447-8.617-20.768c-5.321-5.321-12.667-8.617-20.768-8.617H600H531.513z"/>
	<g>
		<path fill="#9AA1A7" d="M896.34,1134.61H600H303.66c-7.288,0-13.886-2.954-18.662-7.73c-4.776-4.776-7.73-11.374-7.73-18.662
			v-2.201v-2.201c0-7.288,2.954-13.886,7.73-18.662c4.776-4.776,11.374-7.73,18.662-7.73H600h296.34
			c7.288,0,13.886,2.954,18.662,7.73c4.776,4.776,7.73,11.374,7.73,18.662v2.201v2.201c0,7.288-2.954,13.886-7.73,18.662
			C910.226,1131.656,903.628,1134.61,896.34,1134.61z"/>
		<path fill="#2E4C59" d="M897.869,1150H600H302.131c-11.097,0-21.161-4.515-28.45-11.804c-7.289-7.289-11.804-17.352-11.804-28.45
			v-3.727v-3.727c0-11.1,4.515-21.165,11.804-28.455s17.352-11.804,28.45-11.804H600h297.869c11.097,0,21.161,4.515,28.45,11.804
			c7.289,7.29,11.804,17.355,11.804,28.455v3.727v3.727c0,11.097-4.515,21.161-11.804,28.45
			C919.03,1145.485,908.967,1150,897.869,1150z M302.131,1092.812c-2.612,0-4.981,1.063-6.696,2.779s-2.778,4.086-2.778,6.701v3.727
			v3.727c0,2.612,1.063,4.981,2.778,6.696s4.084,2.778,6.696,2.778H600h297.869c2.612,0,4.981-1.063,6.696-2.778
			c1.716-1.716,2.778-4.084,2.778-6.696v-3.727v-3.727c0-2.615-1.063-4.985-2.778-6.701c-1.716-1.716-4.084-2.779-6.696-2.779H600
			H302.131z"/>
	</g>
	<g opacity="0.35">
		<path fill="#2E4C59" d="M896.34,1134.61H600H303.66c-7.288,0-13.886-2.954-18.662-7.73c-4.776-4.776-7.73-11.374-7.73-18.662
			v-2.201v-2.201c0-7.288,2.954-13.886,7.73-18.662c4.776-4.776,11.374-7.73,18.662-7.73H600h296.34
			c7.288,0,13.886,2.954,18.662,7.73c4.776,4.776,7.73,11.374,7.73,18.662v2.201v2.201c0,7.288-2.954,13.886-7.73,18.662
			C910.226,1131.656,903.628,1134.61,896.34,1134.61z"/>
		<path fill="#2E4C59" d="M897.869,1150H600H302.131c-11.097,0-21.161-4.515-28.45-11.804c-7.289-7.289-11.804-17.352-11.804-28.45
			v-3.727v-3.727c0-11.1,4.515-21.165,11.804-28.455s17.352-11.804,28.45-11.804H600h297.869c11.097,0,21.161,4.515,28.45,11.804
			c7.289,7.29,11.804,17.355,11.804,28.455v3.727v3.727c0,11.097-4.515,21.161-11.804,28.45
			C919.03,1145.485,908.967,1150,897.869,1150z M302.131,1092.812c-2.612,0-4.981,1.063-6.696,2.779s-2.778,4.086-2.778,6.701v3.727
			v3.727c0,2.612,1.063,4.981,2.778,6.696s4.084,2.778,6.696,2.778H600h297.869c2.612,0,4.981-1.063,6.696-2.778
			c1.716-1.716,2.778-4.084,2.778-6.696v-3.727v-3.727c0-2.615-1.063-4.985-2.778-6.701c-1.716-1.716-4.084-2.779-6.696-2.779H600
			H302.131z"/>
	</g>
	<g>
		<path fill="#B3B8BD" d="M1005.452,254.42H600l-405.452,0c-14.576,0-27.771-5.908-37.323-15.46s-15.46-22.748-15.46-37.323v-4.402
			v-4.402c0-14.576,5.908-27.771,15.46-37.323c9.552-9.552,22.748-15.46,37.323-15.46H600h405.452
			c14.576,0,27.771,5.908,37.323,15.46c9.552,9.552,15.46,22.748,15.46,37.323v4.402v4.402c0,14.576-5.908,27.771-15.46,37.323
			C1033.223,248.512,1020.027,254.42,1005.452,254.42z"/>
		<path fill="#2E4C59" d="M1008.506,269.812H600H191.494c-17.954,0-34.233-7.304-46.024-19.096s-19.093-28.073-19.093-46.027v-7.454
			v-7.454c0-17.954,7.303-34.234,19.093-46.027c11.791-11.792,28.07-19.096,46.024-19.096H600h408.506
			c17.953,0,34.233,7.304,46.024,19.096c11.791,11.792,19.093,28.073,19.093,46.027v7.454v7.454
			c0,17.954-7.302,34.234-19.093,46.027S1026.46,269.812,1008.506,269.812z M191.494,155.437c-9.468,0-18.053,3.852-24.27,10.071
			c-6.217,6.219-10.068,14.805-10.068,24.273v7.454v7.454c0,9.468,3.85,18.054,10.068,24.273s14.802,10.071,24.27,10.071H600
			h408.506c9.468,0,18.053-3.852,24.27-10.071c6.217-6.219,10.068-14.805,10.068-24.273v-7.454v-7.454
			c0-9.468-3.85-18.054-10.068-24.273c-6.218-6.219-14.802-10.071-24.27-10.071H600H191.494z"/>
	</g>
	<g>
		<path fill="#9AA1A7" d="M871.235,1076.721H600H328.765c-13.685,0-26.88-5.595-37.16-14.709
			c-10.28-9.114-17.645-21.747-19.671-35.823l-32.05-385.884l-32.05-385.884H600h392.167l-32.05,385.884l-32.05,385.884
			c-2.026,14.075-9.391,26.708-19.671,35.823C898.116,1071.126,884.921,1076.721,871.235,1076.721z"/>
		<path fill="#2E4C59" d="M871.238,1092.109H600.003H328.768c-17.632,0-34.362-6.997-47.327-18.462
			c-12.965-11.464-22.166-27.395-24.739-45.261c-0.021-0.153-0.041-0.307-0.058-0.46c-0.017-0.153-0.032-0.307-0.044-0.46
			l-32.051-385.885l-32.051-385.885c-0.177-2.143,0.098-4.276,0.781-6.269c0.683-1.993,1.774-3.846,3.229-5.43
			c1.458-1.581,3.213-2.822,5.142-3.669c1.929-0.846,4.032-1.297,6.184-1.297H600h392.167c2.152,0,4.255,0.451,6.184,1.297
			c1.929,0.846,3.684,2.088,5.142,3.669c1.455,1.584,2.546,3.437,3.229,5.43c0.683,1.993,0.958,4.125,0.781,6.269l-32.051,385.885
			l-32.051,385.885c-0.012,0.153-0.027,0.307-0.044,0.46s-0.037,0.307-0.058,0.46c-2.573,17.866-11.772,33.797-24.736,45.261
			C905.599,1085.111,888.87,1092.109,871.238,1092.109z M287.228,1024.419c1.578,10.196,7.003,19.423,14.514,26.102
			c7.511,6.679,17.107,10.809,27.026,10.809h271.235h271.235c9.919,0,19.513-4.13,27.023-10.809
			c7.509-6.679,12.933-15.907,14.511-26.102l31.338-377.303l31.338-377.303H600H224.551l31.338,377.303L287.228,1024.419z"/>
	</g>
	<g opacity="0.35">
		<polygon fill="#2E4C59" points="977.315,433.243 984.741,343.832 992.167,254.42 600,254.42 207.833,254.42 215.26,343.832 
			222.686,433.243 600.001,433.243 		"/>
		<path fill="#2E4C59" d="M977.312,448.632H600H222.688c-4.004,0-7.672-1.534-10.423-4.066c-2.75-2.532-4.582-6.06-4.913-10.049
			l-7.427-89.41l-7.427-89.41c-0.177-2.143,0.098-4.276,0.781-6.269c0.683-1.993,1.774-3.846,3.229-5.43
			c1.458-1.581,3.213-2.822,5.142-3.669c1.929-0.846,4.032-1.297,6.184-1.297H600h392.167c2.152,0,4.255,0.451,6.184,1.297
			c1.929,0.846,3.684,2.088,5.142,3.669c1.455,1.584,2.546,3.437,3.229,5.43c0.683,1.993,0.958,4.125,0.781,6.269l-7.427,89.41
			l-7.427,89.41c-0.331,3.989-2.163,7.517-4.913,10.049C984.984,447.098,981.316,448.632,977.312,448.632z M236.851,417.853H600
			h363.149l6.15-74.02l6.15-74.02H600H224.551l6.15,74.02L236.851,417.853z"/>
	</g>
	<g>
		<g>
			<polyline fill="#9AA1A7" points="314.816,268.174 343.994,672.448 373.172,1076.721 			"/>
			<path fill="#2E4C59" d="M373.157,1092.109c-3.998,0-7.684-1.545-10.444-4.103c-2.76-2.558-4.594-6.129-4.885-10.181
				l-29.18-404.274l-29.18-404.274c-0.307-4.238,1.135-8.2,3.712-11.178c2.577-2.978,6.291-4.972,10.529-5.276
				c4.208-0.334,8.168,1.106,11.153,3.69c2.985,2.583,4.994,6.311,5.301,10.552l29.18,404.274l29.18,404.274
				c0.307,4.238-1.135,8.2-3.712,11.178s-6.291,4.972-10.529,5.276c-0.186,0.015-0.374,0.026-0.562,0.032
				C373.531,1092.106,373.343,1092.109,373.157,1092.109z"/>
		</g>
		<g>
			<polyline fill="#9AA1A7" points="448.678,258.709 465.46,662.04 482.241,1065.371 			"/>
			<path fill="#2E4C59" d="M482.231,1080.759c-4.103,0-7.859-1.619-10.631-4.272c-2.773-2.653-4.563-6.341-4.734-10.48
				l-16.781-403.33l-16.781-403.33c-0.177-4.244,1.384-8.159,4.052-11.057c2.668-2.898,6.441-4.78,10.689-4.957
				c4.253-0.138,8.168,1.423,11.064,4.081c2.896,2.658,4.773,6.412,4.951,10.659l16.781,403.33l16.781,403.33
				c0.177,4.244-1.384,8.159-4.052,11.057s-6.441,4.78-10.689,4.957c-0.108,0.003-0.216,0.006-0.325,0.008
				C482.447,1080.757,482.339,1080.759,482.231,1080.759z"/>
		</g>
		<g>
			<polyline fill="#9AA1A7" points="885.185,268.174 856.006,672.448 826.828,1076.721 			"/>
			<path fill="#2E4C59" d="M826.849,1092.109c-0.186,0-0.374-0.003-0.562-0.01c-0.188-0.007-0.376-0.017-0.562-0.032
				c-4.238-0.304-7.952-2.298-10.529-5.276s-4.019-6.94-3.712-11.178l29.177-404.274l29.177-404.274
				c0.307-4.241,2.329-7.968,5.321-10.552c2.991-2.583,6.952-4.023,11.133-3.69c4.238,0.304,7.952,2.298,10.529,5.276
				c2.577,2.978,4.019,6.94,3.712,11.178l-29.177,404.274l-29.177,404.274c-0.292,4.052-2.125,7.623-4.885,10.181
				S830.847,1092.109,826.849,1092.109z"/>
		</g>
		<g>
			<polyline fill="#9AA1A7" points="751.322,258.709 734.54,662.04 717.759,1065.371 			"/>
			<path fill="#2E4C59" d="M717.769,1080.759c-0.108,0-0.216-0.001-0.325-0.004c-0.108-0.002-0.216-0.005-0.325-0.008
				c-4.247-0.177-8.021-2.059-10.689-4.957c-2.668-2.898-4.229-6.813-4.052-11.057l16.781-403.33l16.781-403.33
				c0.177-4.25,2.088-8.009,5-10.668s6.828-4.219,11.015-4.072c4.247,0.177,8.021,2.059,10.689,4.957
				c2.668,2.898,4.229,6.813,4.052,11.057l-16.781,403.33l-16.781,403.33c-0.171,4.139-1.961,7.827-4.734,10.48
				C725.628,1079.14,721.872,1080.759,717.769,1080.759z"/>
		</g>
		<g>
			<polyline fill="#9AA1A7" points="595.501,258.709 595.501,662.04 595.501,1065.371 			"/>
			<path fill="#2E4C59" d="M595.5,1080.759c-4.25,0-8.098-1.722-10.882-4.507c-2.785-2.785-4.507-6.632-4.507-10.882v-403.33
				v-403.33c0-4.25,1.722-8.098,4.507-10.882s6.632-4.507,10.882-4.507s8.098,1.722,10.882,4.507s4.507,6.632,4.507,10.882v403.33
				v403.33c0,4.25-1.722,8.098-4.507,10.882C603.598,1079.037,599.751,1080.759,595.5,1080.759z"/>
		</g>
	</g>
</g>
</svg>
