<?xml version="1.0" ?><svg enable-background="new 0 0 512 512" id="Layer_1" version="1.1" viewBox="0 0 512 512" xml:space="preserve" xmlns="http://www.w3.org/2000/svg" xmlns:xlink="http://www.w3.org/1999/xlink"><g><g><linearGradient gradientUnits="userSpaceOnUse" id="SVGID_1_" x1="-0.0000027" x2="512" y1="256" y2="256"><stop offset="0" style="stop-color:#95A5A6"/><stop offset="1" style="stop-color:#7F8C8D"/></linearGradient><circle cx="256" cy="256" fill="url(#SVGID_1_)" r="256"/><linearGradient gradientUnits="userSpaceOnUse" id="SVGID_2_" x1="42.6666641" x2="469.3333435" y1="256.0005188" y2="256.0005188"><stop offset="0" style="stop-color:#7F8C8D"/><stop offset="1" style="stop-color:#95A5A6"/></linearGradient><path d="M256,469.3338623c-117.631012,0-213.3333435-95.7018738-213.3333435-213.3333435    S138.368988,42.6671982,256,42.6671982c117.6362,0,213.3333435,95.7018661,213.3333435,213.333313    S373.6362,469.3338623,256,469.3338623z" fill="url(#SVGID_2_)"/></g><g><circle cx="264" cy="203.6705322" opacity="0.3" r="56.6401329"/><path d="M331.3833923,269.0773315c-0.8933411-0.6069336-2.6900635-1.7738647-2.6900635-1.7738647    C314.2148438,287.4037476,290.6105957,300.5151978,264,300.5151978c-26.6128693,0-50.2192688-13.1141357-64.6971436-33.2192078    c0,0-1.5103912,0.9888-2.2608032,1.4944153C165.0463257,290.342926,144,326.9077454,144,368.387207v12.5829163h240V368.387207    C384,327.0911865,363.1407166,290.6677246,331.3833923,269.0773315z" opacity="0.3"/></g><g><circle cx="256" cy="195.6705322" fill="#FFFFFF" r="56.6401329"/><path d="M323.3833923,261.0773315c-0.8933411-0.6069336-2.6900635-1.7738647-2.6900635-1.7738647    C306.2148438,279.4037476,282.6105957,292.5151978,256,292.5151978c-26.6128693,0-50.2192688-13.1141357-64.6971436-33.2192078    c0,0-1.5103912,0.9888-2.2608032,1.4944153C157.0463257,282.342926,136,318.9077454,136,360.387207v12.5829163h240V360.387207    C376,319.0911865,355.1407166,282.6677246,323.3833923,261.0773315z" fill="#FFFFFF"/></g></g></svg>