<svg xmlns="http://www.w3.org/2000/svg" viewBox="0 0 64 64"><defs><style>.cls-1{fill:#ba1d08;}.cls-2{fill:#ff2400;}.cls-3{fill:#fff;}</style></defs><title>Warning</title><g id="Layer_2" data-name="Layer 2"><g id="Layer_1-2" data-name="Layer 1"><circle class="cls-1" cx="32" cy="32" r="32"/><circle class="cls-2" cx="32" cy="32" r="24"/><path class="cls-3" d="M32,40.41A3.8,3.8,0,1,1,32,48a3.8,3.8,0,1,1,0-7.59ZM31,16h2.27A2.77,2.77,0,0,1,36,18.77v5.16a2.77,2.77,0,0,1,0,.31l-1.13,10a2.77,2.77,0,0,1-2.75,2.46h0a2.77,2.77,0,0,1-2.75-2.46l-1.13-10a2.77,2.77,0,0,1,0-.31V18.77A2.77,2.77,0,0,1,31,16Z"/></g></g></svg>