<svg viewBox="0 0 512 512" xmlns="http://www.w3.org/2000/svg" fill-rule="evenodd" clip-rule="evenodd" stroke-linejoin="round" stroke-miterlimit="2"><g fill-rule="nonzero"><path d="M355.877 217.185c36.227 0 69.193 13.61 94.254 36.003V33.383c0-11.124-8.965-20.09-20.069-20.09H31.55c-11.105 0-20.05 8.966-20.05 20.09v326.752c0 11.125 8.945 20.09 20.05 20.09h184.555a145.118 145.118 0 01-1.61-21.414c-.06-78.178 63.306-141.626 141.382-141.626z" fill="#00947d"/><path fill="#1fc1a7" d="M47.585 50.111h97.575v61.858H47.585z"/><path fill="#61ddc9" d="M181.733 50.111h97.575v61.858h-97.575z"/><path fill="#9bfdec" d="M47.585 148.094h97.575v61.858H47.585z"/><path fill="#00b99d" d="M47.585 246.097h97.575v60.941H47.585z"/><path fill="#04bca1" d="M181.733 148.094h97.575v61.858h-97.575z"/><path fill="#1dc0a7" d="M316.166 50.111h97.576v61.858h-97.576z"/><path d="M450.11 360.115V253.228c-25-22.371-58.027-35.982-94.253-35.982-78.077 0-141.443 63.366-141.443 141.626 0 7.294.55 14.385 1.59 21.394h214.038c11.104-.061 20.069-9.026 20.069-20.151z" fill="#00ba9d"/><path d="M450.131 253.228v106.948c0 11.064-8.944 20.09-20.049 20.09H216.044c10.27 68.032 68.99 120.232 139.853 120.232 78.138-.082 141.443-63.447 141.443-141.707 0-41.973-18.256-79.625-47.209-105.563z" fill="#27cfb2"/><path d="M428.534 289.109l-88.61 88.671-45.538-45.579-27.2 27.303 45.517 45.599 28.952 28.973 27.2-27.323 88.632-88.671-28.953-28.973z" fill="#c5fdf4"/></g></svg>