<svg xmlns="http://www.w3.org/2000/svg" viewBox="0 0 36 36">
  <circle cx="18" cy="18" r="16" fill="#55ACEE"/>
  <g fill="#3B88C3">
    <path d="M34 18c0-1.7-.3-3.3-.7-4.8l-3.3.6-3-2-3 1-3-2-4 1-3-2-3 1-3-2-4 1-.7 3.4c-.2 1.2-.3 2.5-.3 3.8 0 1.7.3 3.3.7 4.8l3.3-.6 3 2 3-1 3 2 4-1 3 2 3-1 3 2 4-1 .7-3.4c.2-1.2.3-2.5.3-3.8z"/>
  </g>
  <g fill="#73D216">
    <path d="M10 12l-3 1.5V17l3-1.5zM18 10l-4 2v3.5l4-2zM24 12l-3 1.5V17l3-1.5zM32 10l-4 2v3.5l4-2z"/>
    <path d="M10 22l-3 1.5V27l3-1.5zM18 20l-4 2v3.5l4-2zM24 22l-3 1.5V27l3-1.5zM32 20l-4 2v3.5l4-2z"/>
  </g>
</svg>
