<svg xmlns="http://www.w3.org/2000/svg" viewBox="0 0 36 36">
  <rect width="36" height="36" rx="4" fill="#B22234"/>
  <rect y="2.77" width="36" height="2.77" fill="#FFF"/>
  <rect y="8.31" width="36" height="2.77" fill="#FFF"/>
  <rect y="13.85" width="36" height="2.77" fill="#FFF"/>
  <rect y="19.38" width="36" height="2.77" fill="#FFF"/>
  <rect y="24.92" width="36" height="2.77" fill="#FFF"/>
  <rect y="30.46" width="36" height="2.77" fill="#FFF"/>
  <rect width="16" height="19.38" fill="#3C3B6E"/>
  <g fill="#FFF" font-size="2.5">
    <circle cx="2.5" cy="2.5" r="0.8"/>
    <circle cx="5.5" cy="2.5" r="0.8"/>
    <circle cx="8.5" cy="2.5" r="0.8"/>
    <circle cx="11.5" cy="2.5" r="0.8"/>
    <circle cx="14" cy="2.5" r="0.8"/>
    <circle cx="4" cy="4.5" r="0.8"/>
    <circle cx="7" cy="4.5" r="0.8"/>
    <circle cx="10" cy="4.5" r="0.8"/>
    <circle cx="13" cy="4.5" r="0.8"/>
    <circle cx="2.5" cy="6.5" r="0.8"/>
    <circle cx="5.5" cy="6.5" r="0.8"/>
    <circle cx="8.5" cy="6.5" r="0.8"/>
    <circle cx="11.5" cy="6.5" r="0.8"/>
    <circle cx="14" cy="6.5" r="0.8"/>
    <circle cx="4" cy="8.5" r="0.8"/>
    <circle cx="7" cy="8.5" r="0.8"/>
    <circle cx="10" cy="8.5" r="0.8"/>
    <circle cx="13" cy="8.5" r="0.8"/>
    <circle cx="2.5" cy="10.5" r="0.8"/>
    <circle cx="5.5" cy="10.5" r="0.8"/>
    <circle cx="8.5" cy="10.5" r="0.8"/>
    <circle cx="11.5" cy="10.5" r="0.8"/>
    <circle cx="14" cy="10.5" r="0.8"/>
    <circle cx="4" cy="12.5" r="0.8"/>
    <circle cx="7" cy="12.5" r="0.8"/>
    <circle cx="10" cy="12.5" r="0.8"/>
    <circle cx="13" cy="12.5" r="0.8"/>
    <circle cx="2.5" cy="14.5" r="0.8"/>
    <circle cx="5.5" cy="14.5" r="0.8"/>
    <circle cx="8.5" cy="14.5" r="0.8"/>
    <circle cx="11.5" cy="14.5" r="0.8"/>
    <circle cx="14" cy="14.5" r="0.8"/>
    <circle cx="4" cy="16.5" r="0.8"/>
    <circle cx="7" cy="16.5" r="0.8"/>
    <circle cx="10" cy="16.5" r="0.8"/>
    <circle cx="13" cy="16.5" r="0.8"/>
    <circle cx="2.5" cy="18.5" r="0.8"/>
    <circle cx="5.5" cy="18.5" r="0.8"/>
    <circle cx="8.5" cy="18.5" r="0.8"/>
    <circle cx="11.5" cy="18.5" r="0.8"/>
    <circle cx="14" cy="18.5" r="0.8"/>
  </g>
</svg>
