<svg xmlns="http://www.w3.org/2000/svg" viewBox="0 0 64 56.44"><defs><style>.cls-1{fill:#cfd8dd;}.cls-2{fill:#b0bec5;}</style></defs><title>Attachment</title><g id="Layer_2" data-name="Layer 2"><g id="Layer_1-2" data-name="Layer 1"><path class="cls-1" d="M60.6,3.34a11.77,11.77,0,0,0-16.43,0L11.33,35.63a6.77,6.77,0,0,0,0,9.69,7.06,7.06,0,0,0,9.86,0l23-22.6a2.26,2.26,0,0,0,0-3.23,2.35,2.35,0,0,0-3.29,0l-23,22.6a2.35,2.35,0,0,1-3.29,0,2.26,2.26,0,0,1,0-3.23L47.46,6.57a7.06,7.06,0,0,1,9.86,0,6.77,6.77,0,0,1,0,9.69L24.47,48.54A11.77,11.77,0,0,1,8,48.54,11.29,11.29,0,0,1,8,32.4L31,9.8a2.26,2.26,0,0,0,0-3.23,2.35,2.35,0,0,0-3.29,0l-23,22.6a15.81,15.81,0,0,0,0,22.6,16.48,16.48,0,0,0,23,0L60.6,19.48A11.29,11.29,0,0,0,60.6,3.34Z"/><path class="cls-2" d="M8,29.17H8a2.35,2.35,0,0,0,3.29,0l9.86-9.69a2.26,2.26,0,0,0,0-3.23h0a2.35,2.35,0,0,0-3.29,0L8,25.94A2.26,2.26,0,0,0,8,29.17Z"/><path class="cls-2" d="M32.68,17.87h0a2.35,2.35,0,0,0,3.29,0l9.86-9.69a2.26,2.26,0,0,0,0-3.23h0a2.35,2.35,0,0,0-3.29,0l-9.86,9.69A2.26,2.26,0,0,0,32.68,17.87Z"/><path class="cls-2" d="M54,19.48,40.89,32.4a2.26,2.26,0,0,0,0,3.23h0a2.35,2.35,0,0,0,3.29,0L57.32,22.71a2.26,2.26,0,0,0,0-3.23h0A2.35,2.35,0,0,0,54,19.48Z"/><path class="cls-2" d="M32.68,43.7h0a2.35,2.35,0,0,0,3.29,0l3.29-3.23a2.26,2.26,0,0,0,0-3.23h0a2.35,2.35,0,0,0-3.29,0l-3.29,3.23A2.26,2.26,0,0,0,32.68,43.7Z"/><path class="cls-2" d="M21.18,42.08h0a2.35,2.35,0,0,0,3.29,0l3.29-3.23a2.26,2.26,0,0,0,0-3.23h0a2.35,2.35,0,0,0-3.29,0l-3.29,3.23A2.26,2.26,0,0,0,21.18,42.08Z"/></g></g></svg>